<svg xmlns="http://www.w3.org/2000/svg" id="Layer_1" data-name="Layer 1" viewBox="0 0 70 70"><defs><linearGradient id="linear-gradient" x1="-451.94" x2="-451.94" y1="534.44" y2="533.48" gradientTransform="matrix(70 0 0 -70 31671 37411)" gradientUnits="userSpaceOnUse"><stop offset="0" stop-color="#eaf7ff"/><stop offset="1" stop-color="#fff"/></linearGradient><linearGradient id="linear-gradient-2" x1="-451.94" x2="-451.94" y1="534.44" y2="533.44" gradientTransform="matrix(70 0 0 -70 31671 37411)" gradientUnits="userSpaceOnUse"><stop offset="0" stop-color="#eaf7ff" stop-opacity=".5"/><stop offset="1" stop-color="#fff" stop-opacity=".46"/></linearGradient><style>.cls-1{fill:#fff}.cls-2{fill:url(#linear-gradient)}.cls-3{fill:url(#linear-gradient-2)}.cls-4{mask:url(#mask)}.cls-5{fill:#91c5e6}.cls-6{fill:#57a2d4}</style><mask id="mask" width="70" height="70" x="0" y="0" maskUnits="userSpaceOnUse"><g transform="translate(-5 -5)"><g id="mask-4"><circle id="path-3" cx="40" cy="40" r="35" class="cls-1"/></g></g></mask></defs><g id="Mobile"><g id="Group-48"><g id="Group-20"><g id="Group-2-Copy-7"><g id="Oval-2"><circle cx="35" cy="35" r="35" class="cls-2"/><circle cx="35" cy="35" r="35" class="cls-3"/></g><g class="cls-4"><g id="Group-13"><g id="Group-11"><path id="Combined-Shape" d="M22.11 75V64.11l-4.67-6.22h4.67v-8.56L19 45.44h3.11v-7.77h12.45v7.77h3.11l-3.11 3.89v8.56h4.66l-4.66 6.22V75Zm4.67-33.44V47h3.11v-5.44Zm0 13.22v4.66h3.11v-4.66Zm0 14.78v4.66h3.11v-4.66Zm-2.34-6.23v1.56h7.78v-1.56Zm0 3.11V68h7.78v-1.56Zm0-17.88v1.55h7.78v-1.55Zm0 3.11v1.55h7.78v-1.55Z" class="cls-5" transform="translate(-5 -5)"/><path id="Rectangle-14" d="M16.33 28.78h14v1.55h-14v-1.55z" class="cls-5"/><path d="M17.89 25.67h10.89v1.55H17.89v-1.55z" class="cls-6"/><path d="M19.44 22.56h7.78v1.55h-7.78v-1.55z" class="cls-5"/><path d="M21 19.44h4.67V21H21v-1.56z" class="cls-6"/></g></g></g><g class="cls-4"><path d="M40.44 70V59.11l-4.66-6.22h4.66v-8.56l-3.11-3.89h3.11v-7.77h12.45v7.77H56l-3.11 3.89v8.56h4.67l-4.67 6.22V70Zm4.67-33.44V42h3.11v-5.44Zm0 13.22v4.66h3.11v-4.66Zm0 14.78v4.66h3.11v-4.66Zm-2.33-6.23v1.56h7.78v-1.56Zm0 3.11V63h7.78v-1.56Zm0-17.88v1.55h7.78v-1.55Zm0 3.11v1.55h7.78v-1.55Z" class="cls-6"/><path d="M39.67 28.78h14v1.55h-14v-1.55z" class="cls-5"/><path d="M41.22 25.67h10.89v1.55H41.22v-1.55z" class="cls-6"/><path d="M42.78 22.56h7.78v1.55h-7.78v-1.55z" class="cls-5"/><path d="M44.33 19.44H49V21h-4.67v-1.56z" class="cls-6"/></g><g class="cls-4"><path id="Shape" d="M43.81 15.16a2.51 2.51 0 1 1 .29 5h-7.58a2 2 0 0 1 0-3.93h.14a3.05 3.05 0 0 1 6.05-.84 2.33 2.33 0 0 1 1.1-.25Z" class="cls-1" transform="translate(-5 -5)"/></g><g class="cls-4"><path d="M11.28 31.83a1.59 1.59 0 1 1 .19 3.17H6.68a1.24 1.24 0 1 1 0-2.48h.09a1.923 1.923 0 0 1 3.81-.52 1.71 1.71 0 0 1 .7-.16Z" class="cls-1"/></g></g></g></g></g></svg>