<svg xmlns="http://www.w3.org/2000/svg" viewBox="0 0 70 72.33"><defs><mask id="B" width="70" height="72.33" x="0" y="0" maskUnits="userSpaceOnUse"><circle cx="40" cy="40" r="35" fill="#fff" transform="translate(-5 -5)"/></mask><mask id="C" width="70" height="70" x="0" y="0" maskUnits="userSpaceOnUse"><circle cx="40" cy="40" r="35" fill="#fff" transform="translate(-5 -5)"/></mask><linearGradient id="A" x1="35.2" x2="35.2" y1=".2" y2="67.4" gradientUnits="userSpaceOnUse"><stop offset="0" stop-color="#eaf7ff"/><stop offset="1" stop-color="#fff"/></linearGradient></defs><circle cx="35" cy="35" r="35" fill="url(#A)"/><g mask="url(#B)"><path fill="#57a2d4" d="M36.17 27.37c5.8 2.17 5 4.7 5 4.7A2.19 2.19 0 0 1 39 34.22h-6.43a2.19 2.19 0 0 1-2.2-2.16s-.8-2.52 5-4.7v-1.7l.4-.78.4.78z"/><path fill="#fffffe" fill-rule="evenodd" d="M35.4 27.36v-2.53"/><path fill="#91c5e6" d="M29.56 38.1H42V35H29.56v3.1z"/><path fill="#fffffe" fill-rule="evenodd" d="M26.5 40.4V39m17.8 1.4V39"/><path fill="#57a2d4" d="M28.78 40.83c0-1.66 1.44-1.94 3.22-1.94h7.56c1.78 0 3.22.28 3.22 1.94v.4h-14v-.4"/><path fill="#91c5e6" d="M28 44.33V42h15.56v2.33h3.1v28H24.9v-28zm0 7v12.45h16.33V51.33zm3.1-5.44v2.33h.78V45.9zm4.67 0v2.33h.78V45.9zm4.66 0v2.33h.78V45.9z"/><path fill="#57a2d4" d="M44.72 41.36v-.92l.4-.77.4.77v.92c3.13 1.2 2.7 2.55 2.7 2.55a1.23 1.23 0 0 1-1.26 1.2h-3.82a1.22 1.22 0 0 1-1.12-1.2s-.26-.82 1.1-1.74a7.84 7.84 0 0 1 1.6-.81zm-18.66 0v-.92l.38-.77.4.77v.92a8.43 8.43 0 0 1 1.6.8c1.37.93 1.1 1.75 1.1 1.75a1.22 1.22 0 0 1-1.11 1.19H24.6a1.24 1.24 0 0 1-1.26-1.2s-.43-1.34 2.7-2.54zm34.22 0v-.92l.4-.77.4.77v.92c3.13 1.2 2.7 2.55 2.7 2.55a1.24 1.24 0 0 1-1.26 1.2h-3.66a1.23 1.23 0 0 1-1.26-1.2s-.44-1.35 2.7-2.55zm-49 0v-.92l.4-.77.4.77v.92c3.13 1.2 2.7 2.55 2.7 2.55a1.23 1.23 0 0 1-1.26 1.2H9.85a1.23 1.23 0 0 1-1.25-1.2s-.44-1.35 2.7-2.55zm36.16 30.97v-24.9h10.9v24.9zm3.5-17.1a1.16 1.16 0 0 0-1.16 1.17v1.94h2.33V56.4a1.17 1.17 0 0 0-1.17-1.17zm3.9 0a1.16 1.16 0 0 0-1.16 1.17v1.94H56V56.4a1.17 1.17 0 0 0-1.17-1.17zm-3.9 4.67a1.16 1.16 0 0 0-1.16 1.17V63h2.33v-1.94a1.17 1.17 0 0 0-1.17-1.17zm3.9 0a1.16 1.16 0 0 0-1.16 1.17V63H56v-1.94a1.17 1.17 0 0 0-1.17-1.17zM13.6 72.33v-24.9h10.9v24.9zm3.5-17.1a1.17 1.17 0 0 0-1.17 1.17v1.94h2.34V56.4a1.17 1.17 0 0 0-1.17-1.17zm3.9 0a1.17 1.17 0 0 0-1.17 1.17v1.94h2.34V56.4A1.17 1.17 0 0 0 21 55.22zm-3.9 4.67a1.17 1.17 0 0 0-1.17 1.17V63h2.34v-1.94a1.17 1.17 0 0 0-1.17-1.17zm3.9 0a1.17 1.17 0 0 0-1.17 1.17V63h2.34v-1.94A1.17 1.17 0 0 0 21 59.89z"/><path fill="#91c5e6" d="M59.1 72.33h3.1V45.1h-3.1v27.22zm-49 0h3.1V45.1h-3.1v27.22z"/><path fill="#fffffe" fill-rule="evenodd" d="M59 40.4V39"/><path fill="#57a2d4" d="M31.1 53.67h.78v7.77h-.78zm4.67 0h.78v7.77h-.78zm4.66 0h.78v7.77h-.78z"/></g><g mask="url(#C)"><path fill="#fff" d="M57.48 26.49a2.51 2.51 0 1 1 .29 5h-7.59a2 2 0 0 1 0-3.93h.14a3.05 3.05 0 0 1 6-.83 2.55 2.55 0 0 1 1.11-.26Z"/></g><g mask="url(#C)"><path fill="#fff" d="M24.5 13.17a1.583 1.583 0 1 1 .19 3.16H19.9a1.24 1.24 0 0 1 0-2.47h.1a1.93 1.93 0 0 1 3.82-.53 1.49 1.49 0 0 1 .69-.16Z"/></g></svg>