<svg xmlns="http://www.w3.org/2000/svg" viewBox="0 0 70 74.67"><defs><linearGradient id="A" x1="35.2" x2="35.2" y1=".2" y2="67.4" gradientUnits="userSpaceOnUse"><stop offset="0" stop-color="#eaf7ff"/><stop offset="1" stop-color="#fff"/></linearGradient><linearGradient id="B" x1="35.2" x2="35.2" y1=".2" y2="70.2" gradientUnits="userSpaceOnUse"><stop offset="0" stop-color="#eaf7ff" stop-opacity=".5"/><stop offset="1" stop-color="#fff" stop-opacity=".46"/></linearGradient><mask id="C" width="70" height="74.67" x="0" y="0" maskUnits="userSpaceOnUse"><circle cx="40" cy="40" r="35" fill="#fff" transform="translate(-5 -5)"/></mask><mask id="D" width="70" height="70" x="0" y="0" maskUnits="userSpaceOnUse"><circle cx="40" cy="40" r="35" fill="#fff" transform="translate(-5 -5)"/></mask></defs><circle cx="35" cy="35" r="35" fill="url(#A)"/><circle cx="35" cy="35" r="35" fill="url(#B)"/><g mask="url(#C)"><path fill="#91c5e6" d="M38.8 18.68h2.4c7 2.63 11.67 10.87 11.67 20.2h-34.2c0-9.33 5.07-17.5 12-20.1.07 0 .87-.05 2-.07q-8.92 9.24-5.88 20l.1.37.73-.2-.1-.37c-2-7 0-13.55 6-19.6l.23-.23h4l.24.25c6 6.1 8 12.6 6 19.64l-.1.37h.83v-.14c2.03-7.22.05-13.93-5.92-20.1zM35 28a.78.78 0 0 0 0 1.56h1.56a.78.78 0 0 0 0-1.56zm0 3.1a.78.78 0 0 0 0 1.56h1.56a.78.78 0 0 0 0-1.56zm0 3.1a.78.78 0 0 0 0 1.56h1.56a.78.78 0 0 0 0-1.56z"/><path fill="#57a2d4" d="M35 11.73v-.84l.78-.78.78.78v.84c2.16.4 3.46 2.44 3.88 6.16H31.1q.64-5.58 3.9-6.16zM16.33 39.67h38.9l-2.38 3.1H18.7l-2.38-3.1z"/><path fill="#ceecff" d="M18.67 43.56h3.1v17.9h-3.1zm31.1 0h3.1v17.9h-3.1z"/><path fill="#91c5e6" d="M23.33 43.56h1.56v17.9h-1.56z"/><path fill="#59a9de" d="M26.44 43.56H28v17.9h-1.56z"/><path fill="#ceecff" d="M29.56 43.56h1.56v17.9h-1.56zm10.88 0H42v17.9h-1.56z"/><path fill="#59a9de" d="M43.56 43.56h1.56v17.9h-1.56z"/><path fill="#91c5e6" d="M46.67 43.56h1.56v17.9h-1.56z"/><path fill="#59a9de" d="M34.22 52.9h3.1v8.56h-3.1zm0-7.8h3.1v1h-3.1z"/><path fill="#86c9f5" fill-rule="evenodd" d="M34.22 63.78h3.1v1h-3.1zm4.67 0H42v1h-3.1zm4.67 0h3.1v1h-3.1zm4.66 0h3.1v1h-3.1zm-28 0h3.1v1h-3.1zm4.67 0H28v1h-3.1zm4.67 0h3.1v1h-3.1z"/><path fill="#57a2d4" d="M17.9 67.67v6.22h35.78v-6.22zm-.78-.78h37.33v7.78H17.1z"/><path fill="#59a9de" d="M34.22 48.22h3.1v1.56h-3.1z"/></g><g mask="url(#D)"><path fill="#fff" d="M59.81 17.93a2.51 2.51 0 1 1 .29 5 1.4 1.4 0 0 1-.29 0h-7.29a2 2 0 0 1 0-3.92h.14a3.054 3.054 0 1 1 6.05-.84 2.47 2.47 0 0 1 1.1-.26Z"/></g><g mask="url(#D)"><path fill="#fff" d="M19.84 12.39a1.582 1.582 0 1 1 .16 3.16h-4.76a1.24 1.24 0 1 1 0-2.47h.08a1.93 1.93 0 0 1 3.82-.53 1.56 1.56 0 0 1 .7-.16Z"/></g></svg>