<svg xmlns="http://www.w3.org/2000/svg" id="Layer_1" data-name="Layer 1" viewBox="0 0 80 80"><defs><linearGradient id="linear-gradient" x1="-452.76" x2="-452.76" y1="535.26" y2="534.3" gradientTransform="matrix(80 0 0 -80 36261 42821)" gradientUnits="userSpaceOnUse"><stop offset="0" stop-color="#eaf7ff"/><stop offset="1" stop-color="#fff"/></linearGradient><clipPath id="clip-path"><circle cx="40" cy="40" r="40" class="cls-1"/></clipPath><style>.cls-1{fill:none}.cls-2{fill:url(#linear-gradient)}.cls-3{clip-path:url(#clip-path)}.cls-4{fill:#91c5e6}.cls-5,.cls-6{fill:#ceecff}.cls-6{fill-rule:evenodd}.cls-7{fill:#57a2d4}</style></defs><circle id="Oval-2" cx="40" cy="40" r="40" class="cls-2"/><g class="cls-3"><path d="M12.76 59.13h-1.2v1.21h16.92v-2.42H12.76v1.21zM36.34 24.07h6.04v2.42h-6.04zM36.34 22.86h.6v-1.21h1.21v1.21h.61v-1.21h1.2v1.21h.61v-1.21h1.21v1.21h.6v-1.21h.61v-.6h-.61v-.61h-.6v.61h-1.21v-.61h-.61v.61h-1.2v-.61h-.61v.61h-1.21v-.61h-.6v.61h-.61v.6h.61v1.21zM41.27 45.23h2.32l1.81-2.42V41h-4.34l-.49-10.28h3.02v-1.81h-8.46v1.81h3.02L37.66 41h-4.34v1.81l1.81 2.42h2.32l-.52 10.88H30.9v1.81l1.81 2.42h4.01l-.99 20.55h7.26L42 60.34h4.01l1.81-2.42v-1.81h-6.03l-.52-10.88zM66.53 58.92v-1.21H50.82v2.42h16.92v-1.21h-1.21z" class="cls-4"/><path d="M23.64 53.08h4.84v1.21h-4.84z" class="cls-5"/><path d="m43.76 45-.17.23h-2.32l.52 10.88h3.04L43.76 45zM42.38 30.72h-1.81L41.06 41h2.31l-.99-10.28zM42 60.34l.99 20.55h4.23l-1.98-20.55H42z" class="cls-6"/><path d="M50.82 52.87h4.84v1.21h-4.84z" class="cls-5"/><path d="M35.73 22.86h7.25v1.21h-7.25zM36.34 26.49h6.04v2.42h-6.04zM35.45 41h2.21l.49-10.28h-1.68L35.45 41zM13.71 74.29l14.77 6.6V61.33H13.97l-.26 12.96zM21.23 54.29h7.25v2.42h-7.25zM65.33 61.12H50.82v19.56l14.76-6.6-.25-12.96zM50.82 54.08h7.25v2.42h-7.25zM33.54 60.34 31.5 80.89l5.07.25.01-.25h-.85l.99-20.55h-3.18zM35.05 45.12l-1.09 10.99h2.97l.52-10.88h-2.32l-.08-.11z" class="cls-7"/></g></svg>