<svg xmlns="http://www.w3.org/2000/svg" viewBox="0 0 70 70"><linearGradient id="A" gradientUnits="userSpaceOnUse" x1="34.999" y1=".202" x2="34.999" y2="57.602"><stop offset="0" stop-color="#e3f1f7"/><stop offset="1" stop-color="#fff"/></linearGradient><circle cx="35" cy="35" r="35" fill="url(#A)"/><linearGradient id="B" gradientUnits="userSpaceOnUse" x1="34.999" y1=".202" x2="34.999" y2="67.402"><stop offset="0" stop-color="#eaf7ff"/><stop offset="1" stop-color="#fff"/></linearGradient><circle cx="35" cy="35" r="35" fill="url(#B)"/><linearGradient id="C" gradientUnits="userSpaceOnUse" x1="34.999" y1=".202" x2="34.999" y2="70.202"><stop offset="0" stop-color="#eaf7ff" stop-opacity=".5"/><stop offset="1" stop-color="#fff" stop-opacity=".46"/></linearGradient><circle cx="35" cy="35" r="35" fill="url(#C)"/><path d="M49 36.6h6.2v3.9H49v-3.9zm1.6 1.5v.8h.8v-.8h-.8zm2.3 0v.8h.8v-.8h-.8z" fill="#57a2d4"/><path d="M34.2 17.2c1.4 0 2.5 1.1 2.5 2.5 0 1.3-.9 2.3-2.2 2.5h-7.6c-1.1-.2-1.8-1.3-1.6-2.3a2.17 2.17 0 0 1 1.6-1.6h.1c0-1.7 1.3-3.1 3-3.1 1.4 0 2.6.9 3 2.3.3-.3.7-.3 1.2-.3zm27.6 5.3c.9 0 1.6.6 1.7 1.5 0 .9-.6 1.6-1.5 1.7h-4.8c-.7.1-1.3-.4-1.3-1.1-.1-.7.4-1.3 1.1-1.3h.3c-.1-1.1.7-2 1.7-2.1s1.9.6 2.1 1.6a1.08 1.08 0 0 1 .7-.3z" fill="#fff"/><path d="M54.4 30.3c0-1-.6-1.9-1.5-2.2v-3.7l-.8-2.6-.8 2.6v3.7c-.9.3-1.5 1.2-1.6 2.2v5.5h4.7v-5.5zm-6.2 17.9v4.7H56v-4.7h-7.8zm2.4 3.1H49v-1.6h1.6v1.6zm2.3 0h-1.6v-1.6h1.6v1.6zm2.3 0h-1.5v-1.6h1.5v1.6zm0-10.1H49v6.2h6.2v-6.2zm-2.3 3.9h-1.6v-1.5h1.6v1.5zm-7-10.1c0-1-.6-1.9-1.6-2.2v-.9l-.8-2.3-.8 2.3v.9a2.38 2.38 0 0 0-1.6 2.2v3.1h4.7V35zm.8 8.6h-6.2v6.2h6.2v-6.2zm-2.4 3.8h-1.6v-1.5h1.6v1.5zM28.8 35c0-1-.6-1.9-1.6-2.2v-.9l-.8-2.3-.8 2.3v.9A2.38 2.38 0 0 0 24 35v3.1h4.7V35zm.8 8.6h-6.2v6.2h6.2v-6.2zm-2.4 3.8h-1.5v-1.5h1.5v1.5zm-7-17.1c0-1-.7-1.9-1.7-2.2v-3.5l-.7-2.6-.8 2.6v3.5c-.9.4-1.4 1.2-1.4 2.2v5.4h4.7v-5.4zM14 52.9h7.8v-4.7H14v4.7zm5.4-3.1H21v1.6h-1.6v-1.6zm-2.3 0h1.6v1.6h-1.6v-1.6zm-2.3 0h1.5v1.6h-1.5v-1.6zm6.2-8.6h-6.2v6.2H21v-6.2zm-2.3 3.9h-1.6v-1.5h1.6v1.5zm3.9 17.1h1.5v6l3.5 1h14.7l3.5-1v-6h1.5v-1.5H22.6v1.5zm17.8 1.6H42v.8h-1.6v-.8zm-3.1 0h1.6v.8h-1.6v-.8zm-3.1 0h1.6v.8h-1.6v-.8zm-3.1 0h1.6v.8h-1.6v-.8zm-3.1 0h1.6v.8H28v-.8z" fill="#91c5e6"/><path d="M56 53.7h-7.8v7.8H56v-7.8zm-3.1 4.6h-1.6v-1.6h1.6v1.6zm-5.5-7.7h-7.8v4.7h7.8v-4.7zM42 53.7h-1.6v-1.6H42v1.6zm2.3 0h-1.6v-1.6h1.6v1.6zm2.4 0h-1.6v-1.6h1.6v1.6zm0-14.8h-6.2v3.9h6.2v-3.9zm-3.9 2.3H42v-.8h.8v.8zm2.3 0h-.8v-.8h.8v.8zm-14.8 9.4h-7.8v4.7h7.8v-4.7zm-5.4 3.1h-1.6v-1.6h1.6v1.6zm2.3 0h-1.5v-1.6h1.5v1.6zm2.4 0H28v-1.6h1.6v1.6zm0-14.8h-6.2v3.9h6.2v-3.9zm-3.9 2.3h-.8v-.8h.8v.8zm2.3 0h-.8v-.8h.8v.8zM47.4 56H22.6v3.9h24.9V56zm-21 2.3h-1.5v-.8h1.5v.8zm3.2 0H28v-.8h1.6v.8zm3.1 0h-1.6v-.8h1.6v.8zm3.1 0h-1.6v-.8h1.6v.8zm3.1 0h-1.6v-.8h1.6v.8zm3.1 0h-1.6v-.8H42v.8zm3.1 0h-1.5v-.8h1.5v.8zm-23.3-4.6H14v7.8h7.8v-7.8zm-3.1 4.6h-1.6v-1.6h1.6v1.6zM21 36.6h-6.2v3.9H21v-3.9zm-3.9 2.3h-.8v-.8h.8v.8zm2.3 0h-.8v-.8h.8v.8zm0 27.5v-1H21V67h-.4l2.7 1.1v-5H14c1.7 1.2 3.5 2.3 5.4 3.3zM56 63h-9.3v5c.9-.3 1.9-.7 2.7-1.1H49v-1.6h1.6v1c1.9-.9 3.7-2 5.4-3.3z" fill="#57a2d4"/></svg>