<svg xmlns="http://www.w3.org/2000/svg" viewBox="0 0 70 70.78"><defs><mask id="B" width="70" height="70" x="0" y="0" maskUnits="userSpaceOnUse"><circle cx="40" cy="40" r="35" fill="#fff" transform="translate(-5 -5)"/></mask><mask id="C" width="70" height="70.78" x="0" y="0" maskUnits="userSpaceOnUse"><circle cx="40" cy="40" r="35" fill="#fff" transform="translate(-5 -5)"/></mask><linearGradient id="A" x1="35.2" x2="35.2" y1=".2" y2="67.4" gradientUnits="userSpaceOnUse"><stop offset="0" stop-color="#eaf7ff"/><stop offset="1" stop-color="#fff"/></linearGradient></defs><circle cx="35" cy="35" r="35" fill="url(#A)"/><g mask="url(#B)"><path fill="#fff" d="M21.7 15.6a2.51 2.51 0 1 1 .29 5h-7.58a2 2 0 1 1 0-3.93h.14a3.029 3.029 0 1 1 6-.83 2.55 2.55 0 0 1 1.11-.26Z"/></g><g mask="url(#B)"><path fill="#fff" d="M59.5 24.83a1.59 1.59 0 0 1 .19 3.17H54.9a1.24 1.24 0 0 1 0-2.48h.1a1.93 1.93 0 0 1 3.81-.52 1.62 1.62 0 0 1 .69-.16Z"/></g><g mask="url(#C)"><path fill="#91c5e6" d="M34.6 18.06v-1.34a.39.39 0 0 1 .78 0v1.34q3.5 1.67 3.5 6.83v45.9H31.1V24.9q0-5.16 3.5-6.83zm.4 8.38A1.56 1.56 0 0 0 33.44 28v4.67h3.12V28A1.56 1.56 0 0 0 35 26.44zm0 11.67a1.56 1.56 0 0 0-1.56 1.56v4.66h3.12v-4.66A1.56 1.56 0 0 0 35 38.11zm0 11.67a1.55 1.55 0 0 0-1.56 1.55V56h3.12v-4.67A1.55 1.55 0 0 0 35 49.78zm0 11.66A1.56 1.56 0 0 0 33.44 63v4.67h3.12V63A1.56 1.56 0 0 0 35 61.44z"/><path fill="#fff" d="M31.1 35h7.78v1H31.1zm0 11.67h7.78v1H31.1zm0 11.66h7.78v1H31.1z"/><path fill="#91c5e6" d="M22.17 28.17q3.5 1.66 3.5 6.83v35.78H17.9V35q0-5.16 3.5-6.83v-1.34a.39.39 0 0 1 .39-.39.4.4 0 0 1 .39.39zm-.4 9.94a1.56 1.56 0 0 0-1.56 1.56v4.66h3.1v-4.66a1.55 1.55 0 0 0-1.55-1.56zm0 11.67a1.55 1.55 0 0 0-1.56 1.55V56h3.1v-4.67a1.54 1.54 0 0 0-1.55-1.55zm0 11.66A1.56 1.56 0 0 0 20.22 63v4.67h3.1V63a1.55 1.55 0 0 0-1.55-1.56z"/><path fill="#fff" d="M17.9 58.33h7.78v1H17.9zm0-11.66h7.78v1H17.9z"/><g fill="#57a2d4"><path d="M48.22 61.44v6.23h-1.55V63a1.55 1.55 0 0 1 1.55-1.56V56h-1.55v-4.67a1.56 1.56 0 0 1 3.11 0V56h-1.56v5.44zm0-23.33a1.56 1.56 0 0 1 1.56 1.56v4.66h-3.1v-4.66a1.55 1.55 0 0 1 1.55-1.56z"/><path d="M44.33 46.67h7.78v1h-7.78zm0 11.66h7.78v1h-7.78z"/></g><path fill="#ceecff" fill-rule="evenodd" d="M8.94 39.06c2.34 1.11 3.5 3.39 3.5 6.83v24.89H4.67V45.89c0-3.44 1.16-5.72 3.5-6.83v-1.34a.39.39 0 1 1 .77 0v1.34Zm-.38 10.72A1.55 1.55 0 0 0 7 51.33V56h3.11v-4.67a1.55 1.55 0 0 0-1.55-1.55Z"/><path fill="#fff" d="M4.67 58.33h7.78v1H4.67z"/><path fill="#ceecff" fill-rule="evenodd" d="M61.83 39.06c2.34 1.1 3.5 3.4 3.5 6.83v24.9h-7.77V45.9c0-3.44 1.16-5.72 3.5-6.83v-2.12a.39.39 0 0 1 .77 0zm-.4 10.72a1.55 1.55 0 0 0-1.55 1.55V56H63v-4.67a1.55 1.55 0 0 0-1.56-1.55z"/><path fill="#fff" d="M57.56 58.33h7.78v1h-7.78z"/><path fill="#91c5e6" d="M54.83 43.56a1.94 1.94 0 0 1 2 1.94v25.28H52.9V45.5a1.94 1.94 0 0 1 1.94-1.94z"/><path fill="#ceecff" fill-rule="evenodd" d="M28.4 24.9a1.94 1.94 0 0 1 1.94 1.94v44h-3.9v-44a2 2 0 0 1 1.95-1.94zm13.2 0a2 2 0 0 1 2 1.94v44h-3.94v-44a1.94 1.94 0 0 1 1.94-1.94z"/><path fill="#57a2d4" d="M15.17 43.56a1.94 1.94 0 0 1 1.94 1.94v25.28h-3.9V45.5a1.94 1.94 0 0 1 1.95-1.94z"/></g></svg>