<svg xmlns="http://www.w3.org/2000/svg" viewBox="0 0 70 70"><linearGradient id="A" x1="34.999" x2="34.999" y1=".202" y2="67.402" gradientUnits="userSpaceOnUse"><stop offset="0" stop-color="#eaf7ff"/><stop offset="1" stop-color="#fff"/></linearGradient><circle cx="35" cy="35" r="35" fill="url(#A)"/><g fill-rule="evenodd"><path fill="#86c9f5" d="M56 45.1 53.7 49H56zm-3.5-3.7-3.4 4.4 3.8 1.8 2.5-3.6zM15.4 44l2.5 3.6 3.8-1.8-3.4-4.4zm-.6 1.1 2.3 3.9h-2.3z"/><path fill="#ceecff" d="M56.8 35.8v7.8l3.1-3.2zM45.9 50.6l7-.8-4.7-3.1zM4.7 48.5H10l3.1-4.1-2.7-2.9zm9.3-4.9v-7.8l-3.1 4.6zm22.6 3.8 8.5 3.2-4.7-6.3zm-11.7 3.2 8.5-3.2-3.8-3.1z"/></g><radialGradient id="B" cx="-604.538" cy="-278.514" r="1.9" gradientTransform="matrix(.23 3.1 -3.1 .23 -693.62 1984.38)" gradientUnits="userSpaceOnUse"><stop offset="0" stop-color="#a9ddff"/><stop offset="1" stop-color="#2176ae"/></radialGradient><path fill="url(#B)" d="m30.3 43.6 3.9 3.1v-3.1z"/><radialGradient id="C" cx="-648.486" cy="313.462" r="1.9" gradientTransform="matrix(-.23 3.1 3.1 .23 -1082.38 1984.38)" gradientUnits="userSpaceOnUse"><stop offset="0" stop-color="#a9ddff"/><stop offset="1" stop-color="#2176ae"/></radialGradient><path fill="url(#C)" d="m39.7 43.6-3.9 3.1v-3.1z"/><path fill="#fff" d="M41.9 9.4c1.4 0 2.5 1.1 2.5 2.5 0 1.3-.9 2.3-2.2 2.5h-7.6c-1.1-.2-1.8-1.3-1.6-2.3a2.17 2.17 0 0 1 1.6-1.6h.1c0-1.7 1.3-3.1 3-3.1 1.4 0 2.7.9 3 2.3.4-.3.8-.3 1.2-.3zM15.2 30.3c.9 0 1.6.6 1.7 1.5 0 .9-.6 1.6-1.5 1.7h-4.8c-.7.1-1.3-.4-1.3-1.1-.1-.8.4-1.4 1-1.4h.3c-.1-1.1.6-2 1.6-2.2 1.1-.1 2 .6 2.2 1.6.3-.1.5-.1.8-.1z"/><path fill="#91c5e6" d="m57.7 44.4 3.1 4.1 6.4.3-6.8-7.3zm-11-4v6.3l7.7-10.1zm-22.6 0-7.8-3.8 7.8 10.1zM2.3 43.6v4.6l8.6-9.3zm57.6-4.7 7.8 8.5c.3-.6.6-1.3.7-2v-1.9l-8.5-4.6zm.2 15.9c-3.8 3.8-6.2 4.6-7.4 3-1.8-2.5-4.5-3-7.9-1.7h-.2c-3.4 2.4-5.9 2.8-7.6 1.4-2.3-1.8-5.1-2.3-8.4-1.5h-.1l-.1.1c-4 2.5-7.1 3.2-9.4 2.3a12.96 12.96 0 0 0-9.1 0h-.1c-.2.1-.4.3-.5.5.3.3.6.7 1 1a11.04 11.04 0 0 1 8 0c2.8 1.2 6.4.3 10.7-2.2 2.4-.7 5-.3 7 1.3 2.4 1.9 5.6 1.4 9.4-1.3 2.8-1.1 4.7-.7 6 1.1 2 2.8 5.3 1.6 9.7-2.8l.1-.1c.3-.3.2-.8-.1-1.1-.2-.4-.7-.3-1 0z"/><path fill="#57a2d4" d="M34.2 43.6h-3.9l3.9 3.1zm1.6 0v3.1l3.9-3.1zM19.4 31.9c2.1 0 3.9-1.7 3.9-3.9 0-2.1-1.7-3.9-3.9-3.9-2.1 0-3.9 1.7-3.9 3.9.1 2.1 1.8 3.9 3.9 3.9zM56 35.8l-3.1 4.6 3.1 3.2zm.8 9.3V49h2.3zm-42-9.3v7.8l3.1-3.2zm-.8 9.3L11.7 49H14zm3.9 3.9h7l-2.3-2.3zm7-7.8v7l3.9-4.6zm21 0L42 43.6l3.9 4.6zM35 49l-.8-.8-4.6 2.4H35zm1.6-.8-.8.8v1.6h5.4zm13.7 14.2c-1.3-2-3.8-2.5-7.3-1.7h-.2l-.1.1c-3.1 2.4-5.3 2.8-6.9 1.4-2.2-1.9-5.2-2.4-7.9-1.6h-.1l-.1.1c-3.6 2.5-6.5 3.2-8.6 2.3-1.9-.8-4-1-5.9-.7a23.07 23.07 0 0 0 1.9 1.4c1.2 0 2.3.3 3.4.7 2.7 1.2 6 .3 10-2.3 2.2-.7 4.6-.2 6.3 1.2 2.2 1.9 5.2 1.5 8.7-1.2 2.8-.6 4.6-.2 5.5 1.1.8 1.1 2.3 1.6 4.5 1.4 1.1-.7 2.1-1.4 3-2.1-3.5 1-5.6.9-6.2-.1z"/></svg>