<svg xmlns="http://www.w3.org/2000/svg" viewBox="0 0 70 70"><style>.H{fill:#57a2d4}.I{fill:#91c5e6}</style><defs><linearGradient id="A" x1="35.2" x2="35.2" y1=".2" y2="67.4" gradientUnits="userSpaceOnUse"><stop offset="0" stop-color="#eaf7ff"/><stop offset="1" stop-color="#fff"/></linearGradient><mask id="B" width="70" height="70" x="0" y="0" maskUnits="userSpaceOnUse"><circle cx="40" cy="40" r="35" fill="#fff" transform="translate(-5 -5)"/></mask></defs><circle cx="35" cy="35" r="35" fill="url(#A)"/><g style="mask:url(#B)"><path d="M23.84 53.3H48.9v3.35H23.84V53.3zm19.86-9.2h5.2v5.87H23.84V44.1h9.8v-1.25h2.52v1.25h5.02v-1.25h2.5v1.25z" class="H"/><path d="M29.47 41.58h3.35v2.5h-3.35zm7.53 0h3.35v2.5H37zM17.14 60h6.7v9.2h-6.7zm.42-6.7h5.86v3.35h-5.86V53.3zm0-9.2h5.86v5.87h-5.86V44.1z" class="I"/><path d="M13.22 44.93h3.92v4.2h-3.92v-4.2zm-1.85 8.37h5.77v3.35h-5.77V53.3z" class="H"/><path d="M18.4 36.14h4.2v3.77h-4.2v-3.77z" class="I"/><path d="M16.3 57.08h8.38v2.5H16.3v-2.5zm0-6.7h8.38v2.5H16.3v-2.5zm0-10.06h8.38v3.35H16.3z" class="H"/><path d="M16.3 32.37h8.38v3.35H16.3v-3.35z" class="I"/><path d="M21.4 28.9a2.73 2.73 0 0 1 1.94 2.61v.2H17.9v-.2a2.73 2.73 0 0 1 1.94-2.61v-4l.78-.78.78.78v4z" class="H"/><path d="M48.9 60h6.7v9.2h-6.7V60zm.43-6.7h5.86v3.35h-5.86V53.3zm0-9.2h5.86v5.87h-5.86V44.1z" class="I"/><path fill="#59a9de" d="M55.6 44.93h3.92v4.2H55.6v-4.2z"/><path d="M55.6 53.3h5.2v3.35h-5.2V53.3z" class="H"/><path d="M50.17 36.14h4.18v3.77h-4.18v-3.77z" class="I"/><path d="M48.07 57.08h8.38v2.5h-8.38v-2.5zm0-6.7h8.38v2.5h-8.38v-2.5zm0-10.06h8.38v3.35h-8.38z" class="H"/><path d="M48.07 32.37h8.38v3.35h-8.38v-3.35z" class="I"/><path d="M53.28 29.2a2.92 2.92 0 0 1 1.91 2.8h-5.86a2.92 2.92 0 0 1 2.39-2.88V24.9l.78-.78.78.78v4.3z" class="H"/><path fill="#ceecff" fill-rule="evenodd" d="M24.26 69.22V60h.84v-2.92h22.6v2.8h.78v9.33h-5.62v-3.77c-2.52-2.8-4.54-4.2-6.08-4.2s-3.55 1.4-6.07 4.2v3.77z"/><path fill="#fff" d="M44.26 12.5a2.51 2.51 0 0 1 .29 5H37a2 2 0 0 1 0-3.93h.14a3.05 3.05 0 0 1 6-.83 2.51 2.51 0 0 1 1.11-.26zM12.06 21.72a1.59 1.59 0 0 1 .18 3.17H7.46a1.24 1.24 0 0 1 0-2.48h.09a1.923 1.923 0 0 1 3.81-.53 1.71 1.71 0 0 1 .7-.16Z"/></g></svg>