<svg xmlns="http://www.w3.org/2000/svg" xml:space="preserve" id="Layer_1" x="0" y="0" style="enable-background:new 0 0 80 80" version="1.1" viewBox="0 0 80 80"><style type="text/css">.st0{fill:url(#SVGID_1_)}.st1{filter:url(#Adobe_OpacityMaskFilter)}.st2{fill-rule:evenodd;clip-rule:evenodd;fill:#fff}.st3{mask:url(#mask-3_6_);fill:#fff}.st4{filter:url(#Adobe_OpacityMaskFilter_1_)}.st5{mask:url(#mask-3_5_);fill:#fff}.st6{fill:#91c5e6}.st7{fill:#57a2d4}</style><linearGradient id="SVGID_1_" x1="-451.943" x2="-451.943" y1="534.513" y2="533.421" gradientTransform="matrix(70 0 0 -70 31676 37416)" gradientUnits="userSpaceOnUse"><stop offset="0" style="stop-color:#eaf7ff"/><stop offset="1" style="stop-color:#fff"/></linearGradient><circle cx="40" cy="40" r="39.9" class="st0"/><defs><filter id="Adobe_OpacityMaskFilter" width="13.6" height="8.4" x="49.7" y="17" filterUnits="userSpaceOnUse"><feColorMatrix type="matrix" values="1 0 0 0 0 0 1 0 0 0 0 0 1 0 0 0 0 0 1 0"/></filter></defs><mask id="mask-3_6_" width="13.6" height="8.4" x="49.7" y="17" maskUnits="userSpaceOnUse"><g class="st1"><circle id="path-2_6_" cx="40" cy="40" r="39.9" class="st2"/></g></mask><path id="Shape_1_" d="M60.3 19.7c1.6-.1 2.9 1.1 3 2.7.1 1.6-1.1 2.9-2.7 3H52c-1.2 0-2.2-1-2.2-2.2 0-1.2 1-2.2 2.2-2.2h.2c-.3-1.9 1.1-3.7 3-3.9 1.9-.3 3.7 1.1 3.9 3 .3-.3.8-.4 1.2-.4z" class="st3"/><defs><filter id="Adobe_OpacityMaskFilter_1_" width="8.6" height="5.3" x="5.4" y="24" filterUnits="userSpaceOnUse"><feColorMatrix type="matrix" values="1 0 0 0 0 0 1 0 0 0 0 0 1 0 0 0 0 0 1 0"/></filter></defs><mask id="mask-3_5_" width="8.6" height="5.3" x="5.4" y="24" maskUnits="userSpaceOnUse"><g class="st4"><circle id="path-2_5_" cx="40" cy="40" r="39.9" class="st2"/></g></mask><path d="M12.1 25.8c1-.1 1.8.7 1.9 1.7.1 1-.7 1.8-1.7 1.9H6.8c-.8 0-1.4-.6-1.4-1.4 0-.8.6-1.4 1.4-1.4h.1c-.2-1.2.7-2.3 1.9-2.5s2.3.7 2.5 1.9c.2-.2.5-.2.8-.2z" class="st5"/><path d="M59.5 31.7c0-.3-.3-.6-.6-.6H21.1c-.3 0-.6.3-.6.6v3h39v-3zM52.4 25.8v-3.6c-2.5.4-4.6 0-6.3-1.2-1.4-1-3.1-1.5-5-1.3-2-.1-3.6.3-5 1.3-1.7 1.2-4.2 1.6-7.6 1.2v3.6h23.9zM17.8 40v33.2c4.2 2.7 8.9 4.8 14 5.8V53c0-3.8 3.1-6.8 6.8-6.8h2.6c3.8 0 6.8 3.1 6.8 6.8v26c5.1-1.1 9.9-3.1 14.1-5.9V40H17.8zm7.6 10c-1.4 0-2.5-1.1-2.5-2.5S24 45 25.4 45s2.5 1.1 2.5 2.5-1.1 2.5-2.5 2.5zm29.2 0c-1.4 0-2.5-1.1-2.5-2.5s1.1-2.5 2.5-2.5 2.5 1.1 2.5 2.5S56 50 54.6 50z" class="st6"/><path d="M24.9 25.8h31v5.3h-31zM31.8 59.5H18.1c-.6 0-1.1.5-1.1 1.1v3.9c0 .6.5 1.1 1.1 1.1h13.7c.6 0 1.1-.5 1.1-1.1v-3.9c0-.6-.5-1.1-1.1-1.1zM61.9 59.5H48.2c-.6 0-1.1.5-1.1 1.1v3.9c0 .6.5 1.1 1.1 1.1h13.7c.6 0 1.1-.5 1.1-1.1v-3.9c0-.6-.5-1.1-1.1-1.1zM62.5 34.7h-45c-.3 0-.6.3-.6.6v4.2c0 .3.3.6.6.6h44.9c.3 0 .6-.3.6-.6v-4.2c0-.4-.2-.6-.5-.6z" class="st7"/></svg>