<svg xmlns="http://www.w3.org/2000/svg" width="78" height="50" fill="none" viewBox="0 0 78 50"><path fill="#46BE88" d="M8.901 13.11a.427.427 0 0 0-.427-.427H.427a.428.428 0 0 0-.427.428v8.046a.425.425 0 0 0 .427.425h2.708a.425.425 0 0 0 .427-.425v-4.63a.284.284 0 0 1 .284-.284h4.628a.427.427 0 0 0 .427-.427V13.11Z"/><path fill="#3D4159" d="M16.526 20.671a.569.569 0 0 0-.568-.568h-7.24a.568.568 0 0 0-.569.568v11.703a.568.568 0 0 0 .568.569h2.443a.57.57 0 0 0 .57-.569V24.04a.355.355 0 0 1 .355-.355h3.885a.571.571 0 0 0 .568-.57l-.012-2.443ZM40.604 19.676c-3.727 0-6.781 2.783-7.041 6.313-.012.167-.02.998-.02 1.493v9.266a.498.498 0 0 0 .498.497h2.581a.498.498 0 0 0 .498-.497v-4.662a6.594 6.594 0 0 0 2.819 1.192c.221.022.444.031.67.031 3.56 0 6.505-2.54 6.995-5.841v.114c0-.078.017-.158.022-.243a6.58 6.58 0 0 0 .056-.85c-.002-3.76-3.166-6.813-7.078-6.813Zm.107 10.377a3.576 3.576 0 1 1 .007 0h-.007ZM31.591 26.676v-6.118a.498.498 0 0 0-.497-.498h-2.572a.498.498 0 0 0-.497.498v6.514c-.069 1.52-1.387 3.06-2.914 3.06-1.527 0-2.855-1.54-2.914-3.06v-6.514a.498.498 0 0 0-.497-.498h-2.574a.497.497 0 0 0-.5.498v6.225c0 3.82 2.913 6.556 6.495 6.556 3.581 0 6.497-2.74 6.497-6.556a.176.176 0 0 1-.027-.107ZM61.687 20.062h-2.566a.498.498 0 0 0-.498.498v4.594s-.012.444-.024.534c-.2 1.428-1.457 2.617-2.914 2.617s-2.724-1.226-2.896-2.67c0-.07-.02-.532-.02-.532v-4.545a.498.498 0 0 0-.497-.498h-2.574a.497.497 0 0 0-.5.498v4.572c0 3.819 2.913 6.555 6.495 6.555a6.65 6.65 0 0 0 2.913-.663v.025c-.068 1.522-1.386 3.059-2.913 3.059h-3.37a.497.497 0 0 0-.498.5v2.212a.498.498 0 0 0 .497.498H55.7a6.389 6.389 0 0 0 6.473-6.133c0-.139.012-.717.015-1.192V20.56a.497.497 0 0 0-.5-.498ZM76.572 20.062h-2.567a.5.5 0 0 0-.5.498v4.594s-.012.444-.024.534c-.199 1.428-1.457 2.617-2.914 2.617-1.456 0-2.724-1.226-2.899-2.67 0-.07-.017-.532-.017-.532v-4.545a.498.498 0 0 0-.497-.498H64.58a.497.497 0 0 0-.5.498v4.572c0 3.819 2.913 6.555 6.495 6.555a6.649 6.649 0 0 0 2.913-.663v.025c-.068 1.522-1.386 3.059-2.913 3.059h-3.368a.497.497 0 0 0-.498.5v2.212a.498.498 0 0 0 .498.498h3.377a6.389 6.389 0 0 0 6.474-6.133c0-.139.012-.717.012-1.192V20.56a.485.485 0 0 0-.498-.498Z"/></svg>