<svg xmlns="http://www.w3.org/2000/svg" width="78" height="50" fill="none" viewBox="0 0 78 50"><path fill="#00BBB4" d="M13.264 19.037c-.942.053-1.8.042-2.624.16-3.256.482-5.409 3.02-5.409 6.309 0 3.052-.01 6.105.01 9.147 0 .492-.17.664-.642.653-1.017-.021-2.045-.01-3.063-.01-.31 0-.546-.054-.536-.461.033-3.053.054-6.095.097-9.147.043-2.71.814-5.163 2.656-7.24 1.885-2.132 4.316-3.128 7.101-3.375.59-.053 1.19 0 1.778-.02.397-.012.643.106.643.556-.021 1.125-.01 2.239-.01 3.428Z"/><path fill="#007878" d="M32.726 25.176c-.985 1.05-1.96 2.099-2.913 3.17-1.403 1.575-3.042 2.603-5.163 2.742-.921.064-1.842.021-2.678-.632a397.008 397.008 0 0 0 11.075-10.978c-.492-.718-1.081-1.082-1.585-1.543-1.714-1.553-3.674-2.581-6.03-2.817-5.88-.589-11.096 3.9-11.021 10.1.053 4.531 2.495 7.605 6.565 9.298 4.724 1.96 9.265-.172 12.307-3.974a80.64 80.64 0 0 0 2.014-2.614c-.879-.889-1.618-2.024-2.571-2.752ZM18.93 27.468c-.953-1.532-.653-4.327.814-6.116 1.35-1.639 3.91-2.978 7.166-1.789a2778.793 2778.793 0 0 0-7.98 7.905Z"/><path fill="#00BBB4" d="M73.138 15.01c-.215.44-.975 2.014-1.2 2.443-.782 1.532-1.607 3.03-2.4 4.552-.395.76-.792 1.52-1.156 2.303-.364.76-1.071 2.302-1.071 2.302L61.527 15H56.88s7.058 13.228 10.303 20.2a497.398 497.398 0 0 0 4.488-8.536c1.232-2.378 2.464-4.766 3.727-7.123C76.03 18.352 77.775 15 77.775 15h-4.638v.01ZM49.767 15.056c-.214.439-.975 2.013-1.2 2.442-.782 1.531-1.606 3.03-2.399 4.552-.396.76-.792 1.52-1.157 2.303-.364.76-1.07 2.302-1.07 2.302l-5.784-11.61h-4.649s7.058 13.228 10.304 20.2A497.027 497.027 0 0 0 48.3 26.71c1.231-2.378 2.463-4.766 3.727-7.123.632-1.188 2.378-4.541 2.378-4.541h-4.638v.01Z"/></svg>