<svg xmlns="http://www.w3.org/2000/svg" width="120" height="50" fill="none" viewBox="0 0 120 50"><path fill="#231F20" d="m103.774 29.03.049-.186 1.417-.028c.28-.09.556-.197.827-.323.206-.08.417-.143.631-.189l4.333-.214a6.507 6.507 0 0 1-.326 1.613l-4.167-.133a2.558 2.558 0 0 1-1.027-.375.684.684 0 0 0-.277-.11l-1.46-.055ZM102.687 19.81l.07-.18h1.015a13.348 13.348 0 0 0 1.94-.344 17.789 17.789 0 0 1 3.755-.465 9.056 9.056 0 0 1 3.379.563l-.509 1.047-6.73-.02a1.508 1.508 0 0 1-.635-.187l-.539-.235a1.702 1.702 0 0 0-.708-.153l-1.038-.025Z"/><path fill="#231F20" d="m103.413 27.807.051-.163 1.446-.082a1.24 1.24 0 0 0 .199-.028l.82-.327c.152-.068.311-.105.473-.11l4.563-.217c.041.402.065.636.065.71.009.302-.004.604-.038.903l-4.575-.11a2.841 2.841 0 0 1-1.227-.409.751.751 0 0 0-.342-.11l-1.435-.057ZM101.596 26.227l.053-.192 1.141-.054c.232-.016.462-.062.686-.139l.721-.271a.887.887 0 0 1 .352-.086l5.94-.217c.28.48.465 1.032.541 1.612l-6.448-.107a2.213 2.213 0 0 1-1.003-.3 2.869 2.869 0 0 0-.617-.22l-1.366-.026ZM100.873 21.342l.05-.197 1.408-.048c.099-.007.197-.023.294-.048l.827-.323c.145-.052.297-.076.449-.07l8.583-.227-.587 1.613-.399-.184a5.044 5.044 0 0 0-2.116-.442 2.315 2.315 0 0 0-1.605.497l-3.556-.1a3.344 3.344 0 0 1-1.244-.197 2.44 2.44 0 0 0-.716-.274h-1.388ZM100.51 24.613l.053-.192 1.345-.029c.307-.078.609-.188.901-.327.216-.104.443-.168.674-.189l5.161-.22c.671.33 1.248.89 1.663 1.612l-6.926-.11a1.647 1.647 0 0 1-.75-.218 1.826 1.826 0 0 0-.811-.274l-1.31-.053ZM100.51 22.983l.072-.19 1.224-.028c.296-.039.586-.129.861-.267.229-.117.47-.198.716-.242l4.135-.215c-.055.133-.082.28-.08.429 0 .351.272.702.768 1.026.1.042.196.095.287.158l-4.72-.134a3.91 3.91 0 0 1-1.588-.404.61.61 0 0 0-.252-.08l-1.423-.053ZM97.968 30.653l.053-.158 1.337-.052a.59.59 0 0 0 .308-.08l.872-.344a1.05 1.05 0 0 1 .424-.079l9.706-.238a10.744 10.744 0 0 1-.732 1.613l-9.212-.135a3.314 3.314 0 0 1-1.046-.368.902.902 0 0 0-.314-.107l-1.396-.052ZM97.968 32.13l.05-.141 1.422-.047a3.48 3.48 0 0 0 .914-.29c.202-.108.42-.18.644-.21l8.944-.127a6.864 6.864 0 0 1-2.391 1.248 12.554 12.554 0 0 1-3.307.359 12.91 12.91 0 0 1-3.417-.36l-1.156-.327a1.222 1.222 0 0 0-.375-.047l-1.328-.059ZM92.893 19.746l.068-.218 1.454-.057c.23-.025.454-.099.662-.217.263-.15.545-.242.833-.275l3.515-.16-.545 1.612-3.258-.157a2.602 2.602 0 0 1-1.04-.41.785.785 0 0 0-.261-.082l-1.428-.036ZM92.165 21.33l.07-.189 1.457-.028s.123-.036.326-.107l.312-.139.31-.139a.974.974 0 0 1 .446-.106l3.61-.193-.544 1.613-3.154-.164a1.713 1.713 0 0 1-.474-.11l-.703-.328a.36.36 0 0 0-.2-.053l-1.456-.057ZM91.802 22.97l.071-.192 1.28-.028a.415.415 0 0 0 .136-.025h.1l.853-.331a4.892 4.892 0 0 1 1.18-.189l2.912-.164-.546 1.613-2.823-.11a4.374 4.374 0 0 1-1.44-.453.709.709 0 0 0-.318-.082l-1.404-.039ZM91.078 24.531l.05-.167 1.476-.025c.125-.037.249-.082.37-.135.326-.16.665-.28 1.012-.356l3.623-.192-.543 1.612-1.92-.082a6.636 6.636 0 0 1-1.724-.192l-.664-.3a.707.707 0 0 0-.24-.081l-1.44-.082ZM90.712 26.155l.032-.162 1.514-.052a.543.543 0 0 0 .216-.08 3.497 3.497 0 0 1 1.227-.404l3.542-.19-.564 1.613-3.264-.189a.846.846 0 0 1-.36-.105c-.3-.16-.612-.286-.933-.375l-1.41-.056Z"/><path fill="#231F20" d="M89.987 27.379a.847.847 0 0 1 .07-.19l1.443-.028a.444.444 0 0 0 .213-.081l.64-.246c.18-.085.37-.14.563-.164l3.602-.192-.545 1.612-2.709-.135a2.696 2.696 0 0 1-1.011-.163l-.484-.25a1.136 1.136 0 0 0-.516-.135l-1.266-.028ZM89.26 28.99l.071-.191 1.456-.025a.522.522 0 0 0 .136-.057l.59-.246.232-.078c.173-.058.348-.105.525-.139l3.522-.164-.551 1.613-2.765-.14a3.974 3.974 0 0 1-.684-.067 6.326 6.326 0 0 1-.83-.356.827.827 0 0 0-.343-.11l-1.359-.04ZM88.898 30.621l.072-.196 1.432-.054a.754.754 0 0 0 .239-.058l.893-.364.358-.08 3.613-.167h4.641l-.55 1.613-6.715-.11a5.764 5.764 0 0 1-1.66-.166l-.643-.323a.664.664 0 0 0-.283-.084l-1.397-.01ZM88.171 32.24l.051-.189 1.468-.053a.704.704 0 0 0 .239-.057l.842-.327c.172-.072.352-.11.534-.11l8.115-.19-.572 1.613-7.672-.15a2.055 2.055 0 0 1-.682-.138l-.568-.274a.802.802 0 0 0-.36-.082l-1.395-.043ZM80.554 19.758l.048-.218 1.426-.024c.101-.012.2-.04.296-.084l.916-.35c.134-.055.274-.082.415-.081l8.51-.183-.569 1.613-8.231-.162a1.49 1.49 0 0 1-.72-.213 1.918 1.918 0 0 0-.703-.27l-1.388-.028ZM79.826 21.358l.053-.192 1.449-.025c.128-.012.253-.05.37-.11a8.832 8.832 0 0 1 1.236-.41l8.503-.192-.549 1.613h-7.856c-.242 0-.48-.056-.704-.164l-.748-.356a2.445 2.445 0 0 0-.4-.135l-1.354-.029Z"/><path fill="#231F20" d="m79.464 22.943.053-.163 1.457-.057a.683.683 0 0 0 .254-.081c.387-.191.79-.328 1.203-.409l3.564-.192-.546 1.613-3.245-.164a.719.719 0 0 1-.34-.081l-.722-.345a1.792 1.792 0 0 0-.277-.11l-1.401-.01ZM78.737 24.553l.074-.193 1.43-.029c.222-.038.439-.116.644-.229.262-.136.539-.225.822-.264l3.46-.183h5.181l-.54 1.613-7.195-.136c-.199 0-.478 0-.834-.029a5.498 5.498 0 0 1-.559-.053l-.85-.383a3.297 3.297 0 0 0-.778-.082l-.855-.032ZM78.376 26.142l.072-.2h1.248c.298-.035.59-.12.868-.251.285-.132.585-.215.89-.248l8.534-.175-.57 1.612-8.3-.171a.889.889 0 0 1-.361-.116 3.422 3.422 0 0 0-.949-.398l-1.432-.053Z"/><path fill="#231F20" d="m77.65 27.417.033-.189 1.466-.052a1.52 1.52 0 0 0 .333-.106l.353-.136c.314-.14.645-.222.98-.242l8.446-.214-.55 1.612h-8.229a1.44 1.44 0 0 1-.71-.35 1.184 1.184 0 0 0-.667-.294l-1.455-.029ZM77.286 29.37l.053-.193 1.46-.024c.167-.057.418-.157.754-.303.203-.111.42-.175.643-.189l3.621-.167-.566 1.613-3.2-.193a2.115 2.115 0 0 1-.66-.217l-.383-.188a.594.594 0 0 0-.319-.082l-1.403-.057Z"/><path fill="#231F20" d="m76.563 30.617.032-.164 1.108-.053c.192-.004.385-.021.575-.053l.76-.296c.164-.08.337-.126.514-.135l3.54-.214h5.082l-.555 1.613-8.338-.16a.686.686 0 0 1-.32-.086l-.608-.292a2.84 2.84 0 0 0-.977-.139l-.813-.02ZM75.835 32.24l.053-.164 1.44-.053a2.22 2.22 0 0 0 .694-.26c.275-.15.57-.238.872-.26l8.552-.188-.549 1.612-8.65-.22-.26-.11a2.651 2.651 0 0 0-.727-.303l-1.425-.054ZM68.214 19.758l.053-.218 1.423-.024c.101-.013.2-.041.296-.084l.916-.35a1.09 1.09 0 0 1 .412-.081l8.51-.183-.565 1.613-8.23-.162a1.475 1.475 0 0 1-.72-.213 1.927 1.927 0 0 0-.705-.27l-1.39-.028ZM67.855 21.358l.05-.192 1.445-.025c.129-.012.255-.05.374-.11a8.828 8.828 0 0 1 1.243-.41l8.5-.192-.553 1.613h-7.858c-.241 0-.48-.055-.703-.164l-.748-.356a2.29 2.29 0 0 0-.403-.135l-1.347-.029Z"/><path fill="#231F20" d="m67.128 22.943.053-.163 1.458-.057a.63.63 0 0 0 .25-.081 4.816 4.816 0 0 1 1.21-.409l3.56-.192-.545 1.613-3.245-.164a.72.72 0 0 1-.342-.081l-.723-.327a1.845 1.845 0 0 0-.28-.11l-1.396-.029ZM66.402 24.556l.071-.192 1.428-.029c.223-.038.44-.115.644-.227a2.52 2.52 0 0 1 .823-.264l3.464-.189h5.18l-.551 1.613-7.188-.135c-.196 0-.475 0-.834-.029a5.623 5.623 0 0 1-.558-.053l-.85-.381a3.309 3.309 0 0 0-.777-.082l-.852-.032ZM66.038 26.142l.07-.2h1.24c.3-.035.595-.12.875-.251.285-.133.584-.216.89-.248l8.536-.175-.57 1.612-8.302-.171a.892.892 0 0 1-.359-.116 3.422 3.422 0 0 0-.948-.398l-1.432-.053Z"/><path fill="#231F20" d="m65.311 27.417.033-.189 1.466-.052c.114-.023.225-.058.333-.106l.35-.136a2.81 2.81 0 0 1 .983-.242l8.446-.214-.549 1.612h-8.236a1.413 1.413 0 0 1-.706-.35 1.2 1.2 0 0 0-.671-.294l-1.449-.029ZM64.95 29.37l.054-.193 1.457-.024c.169-.057.42-.157.756-.303a1.53 1.53 0 0 1 .644-.189l3.62-.167-.563 1.613-3.205-.193a2.135 2.135 0 0 1-.658-.217l-.384-.188a.603.603 0 0 0-.319-.082l-1.402-.057Z"/><path fill="#231F20" d="m64.226 30.61.032-.164 1.11-.054c.193-.004.384-.022.574-.054l.763-.298c.162-.076.334-.117.507-.122l3.545-.216h5.08l-.55 1.613-8.339-.162a.692.692 0 0 1-.323-.086l-.594-.294c-.32-.104-.65-.151-.98-.14l-.825-.022ZM63.86 32.24l.053-.164 1.441-.053c.24-.046.472-.133.69-.26.28-.153.581-.24.888-.26l8.539-.188-.548 1.612-8.636-.22-.26-.11a2.68 2.68 0 0 0-.726-.303l-1.441-.054ZM60.957 19.746l.07-.218 1.472-.057c.262-.047.516-.138.757-.27.225-.108.46-.183.7-.222l3.532-.16-.532 1.612-3.173-.193a2.184 2.184 0 0 1-.718-.192 1.385 1.385 0 0 0-.59-.272l-1.518-.028ZM60.597 21.332l.053-.193 1.383-.053c.1-.006.2-.024.296-.054l.889-.356c.167-.047.338-.075.51-.082l3.4-.165-.548 1.613-3.036-.164a1.882 1.882 0 0 1-.578-.107l-.607-.275a1.247 1.247 0 0 0-.5-.136l-1.262-.028ZM59.87 22.943l.07-.191 1.458-.054c.027 0 .118-.021.274-.056l.697-.299c.136-.067.282-.105.43-.11l3.602-.192-.572 1.613-2.95-.135a3.048 3.048 0 0 1-.885-.245l-.443-.192a.573.573 0 0 0-.294-.11l-1.387-.029ZM57.692 28.994l.053-.192 1.471-.028a.266.266 0 0 1 .118-.054l.541-.192.312-.135a.935.935 0 0 1 .447-.11l3.59-.193-.565 1.613-3.21-.164a.288.288 0 0 1-.083-.029l-.273-.053-.61-.299a1.718 1.718 0 0 0-.552-.11l-1.239-.054ZM56.966 30.634l.05-.193 1.003-.025c.256-.003.512-.04.762-.11l.638-.275a1.28 1.28 0 0 1 .527-.136l3.55-.193-.543 1.613-2.74-.107a2.704 2.704 0 0 1-.909-.136l-.588-.303s-.138-.036-.377-.11l-1.373-.025ZM56.605 32.215l.053-.16 1.469-.053c.283-.085.56-.197.828-.337.089-.031.294-.087.588-.161l3.593-.19-.56 1.613-3.233-.161a3.518 3.518 0 0 1-.396-.105l-.68-.295a.677.677 0 0 0-.293-.08l-1.369-.07ZM53.338 19.692l.07-.192 1.472-.029c.25-.064.496-.154.733-.27.223-.118.46-.193.7-.222l3.556-.16-.544 1.612-3.223-.157a1.501 1.501 0 0 1-.677-.193 2.973 2.973 0 0 0-.624-.328l-1.463-.06ZM52.974 21.3l.053-.164 1.34-.054a.466.466 0 0 0 .156-.025h.1l.912-.356c.164-.065.335-.1.507-.108l3.463-.164-.545 1.613-3.222-.168a3.353 3.353 0 0 1-1.02-.41 1.9 1.9 0 0 0-.266-.107l-1.478-.057ZM52.251 22.848l.07-.178 1.433-.026.08-.025.214-.049.435-.177c.24-.102.491-.168.747-.197l3.552-.155-.617 1.613-3.041-.278a3.943 3.943 0 0 1-1.094-.348 1.04 1.04 0 0 0-.362-.129l-1.417-.052ZM51.889 24.544l.07-.19 1.466-.052a.194.194 0 0 0 .077-.028l.792-.323.6-.134 11.146-.162-.534 1.613-10.831-.186a1.127 1.127 0 0 1-.475-.137l-.64-.295a.755.755 0 0 0-.337-.081l-1.334-.025ZM51.16 26.132l.033-.161 1.425-.053a.6.6 0 0 0 .252-.056l.618-.24c.247-.113.508-.177.772-.19l11.051-.164-.562 1.612-10.831-.189a1.25 1.25 0 0 1-.419-.136l-.585-.266c-.18-.063-.366-.1-.553-.108l-1.2-.05Z"/><path fill="#231F20" d="m50.435 27.39.05-.214 1.329-.025a5.28 5.28 0 0 0 .878-.27c.302-.139.623-.212.948-.214l10.947-.189-.562 1.612-10.704-.16a1.191 1.191 0 0 1-.536-.11l-.737-.35a.721.721 0 0 0-.275-.028l-1.338-.053ZM50.073 29.003l.07-.15 1.407-.05a1.26 1.26 0 0 0 .542-.158c.265-.135.545-.23.832-.282l3.68-.273-.586 1.613-3-.155a3.691 3.691 0 0 1-1.254-.407.589.589 0 0 0-.238-.075l-1.453-.063ZM49.347 30.623l.067-.219 1.437-.026c.27-.076.534-.175.791-.295a3.39 3.39 0 0 1 .621-.189l3.615-.192-.539 1.613-2.902-.162c-.255 0-.508-.045-.75-.133l-.645-.301a.688.688 0 0 0-.318-.083l-1.377-.013ZM48.622 32.215l.073-.16 1.41-.053c.286-.06.565-.16.831-.298.257-.107.525-.17.796-.19l3.421-.2-.56 1.613-3.287-.19a.666.666 0 0 1-.12-.024l-.18-.052a3.367 3.367 0 0 1-.62-.298.776.776 0 0 0-.316-.109l-1.448-.038ZM46.442 19.694l.05-.189 1.413-.057a.901.901 0 0 0 .308-.082l.784-.299c.135-.063.278-.1.423-.11l4.28-.139-.872 1.613-3.52-.189c-.312-.016-.617-.1-.904-.249a1.958 1.958 0 0 0-.87-.27l-1.092-.029ZM38.463 19.626l.071-.203.796-.028h.497c.243-.005.483-.057.712-.153a3.525 3.525 0 0 1 1.081-.296l4.1-.128-.233 1.613-4.132-.2a2.023 2.023 0 0 1-.664-.202c-.244-.118-.5-.228-.772-.356l-1.456-.047ZM38.098 32.133l.07-.163 1.109-.025c.222.008.443-.03.655-.11.497-.204.809-.317.931-.357.214-.046.432-.065.65-.056l4.568-.107-.873 1.612-4.266-.22a2.446 2.446 0 0 1-.772-.257 1.86 1.86 0 0 0-.669-.235l-1.403-.082ZM31.568 21.204l.07-.206h.904c.277.015.554-.022.82-.107l.756-.3c.148-.043.298-.07.45-.084l3.318-.078-.092.62 1.412-.02a.867.867 0 0 0 .276-.047l.639-.216c.2-.08.41-.127.623-.141l4.753-.118-.112.596.768.027c.102 0 .255 0 .45-.027l.45-.054.735-.283c.167-.078.345-.123.526-.131l4.3-.128-.883 1.525-3.661-.195a6.283 6.283 0 0 1-1.059-.415l-.182-.053h-.059l-1.418-.05-.085.723-3.74-.165a5.173 5.173 0 0 1-1.471-.192l-.588-.306a1.214 1.214 0 0 0-.589-.111l-1.102-.027-.11.673-3.349-.179a8.706 8.706 0 0 0-1.259-.464l-1.49-.067ZM31.568 22.806l.092-.183h.91l.214-.027.354-.028a.44.44 0 0 0 .27-.079l.633-.234c.103-.038.245-.083.427-.134l3.365-.08-.094.607h.512a1.6 1.6 0 0 0 .648-.117l.733-.32c.157-.065.323-.096.489-.09h5.331l-.13.633.375-.027.53-.024c.115-.055.397-.17.85-.345.162-.072.334-.107.507-.103l4.304-.134-.883 1.533-2.485-.131a13.26 13.26 0 0 1-1.584-.186l-.721-.317a.438.438 0 0 0-.197-.028l-.471-.027h-.239l-.127.689-4.83-.22a3.725 3.725 0 0 1-.83-.08l-.802-.345a.995.995 0 0 0-.4-.113h-.627l-.118.668-3.297-.21a2.119 2.119 0 0 1-.63-.238 1.555 1.555 0 0 0-.627-.213l-1.452-.097ZM31.204 24.427l.07-.168.863-.006c.275.008.55-.02.82-.086l.853-.343c.212-.054.428-.082.645-.083l2.977-.085-.08.597c.172-.003.343-.035.506-.097.4-.17.82-.275 1.244-.312l5.934-.116-.092.603c.22-.012.436-.065.642-.157.32-.168.66-.275 1.009-.316l4.203-.13-.882 1.526-3.41-.158a2.267 2.267 0 0 1-.823-.236 2.761 2.761 0 0 0-.792-.264l-.088.658-5.512-.195a2.675 2.675 0 0 1-.912-.134l-.724-.343-.356-.052-.106.738-2.78-.196c-.49-.048-.97-.2-1.414-.446a7.078 7.078 0 0 1-.362-.137l-1.433-.062Z"/><path fill="#231F20" d="m30.844 26.026.05-.156 1.374-.023a.975.975 0 0 0 .333-.074c.468-.22.965-.357 1.472-.405l2.943-.1-.059.447a.55.55 0 0 0 .254-.088l.385-.145c.148-.07.307-.108.468-.114l3.185-.1-.277.473c.068-.017.134-.04.198-.069l.385-.106c.142-.033.286-.056.43-.068l2.65-.13-.063.395c.284-.179.603-.281.93-.298l4.21-.097-.9 1.438-3.492-.175a2.377 2.377 0 0 1-.656-.172.426.426 0 0 1-.203-.074l-.095.495-2.213-.207a3.63 3.63 0 0 1-1.234-.324.649.649 0 0 0-.24-.103l-.313.544-2.355-.191a3.453 3.453 0 0 1-1.139-.34l-.074.543-2.902-.22a3.06 3.06 0 0 1-.954-.226 7.871 7.871 0 0 0-.741-.279l-1.357-.052ZM30.844 27.656l.05-.188 1.433-.027c.247-.047.489-.128.72-.24.273-.13.56-.212.854-.242l6.664-.079-.309.632c.34-.052.674-.15.995-.29.21-.092.433-.146.659-.157l7.076-.106-.906 1.534-6.361-.209a1.765 1.765 0 0 1-.674-.211 2.816 2.816 0 0 0-.939-.287l-.347.628-6.147-.215a1.7 1.7 0 0 1-.706-.253 1.735 1.735 0 0 0-.688-.253l-1.374-.037Z"/><path fill="#231F20" d="m30.48 28.869.05-.19 1.43-.024c.127-.013.252-.05.37-.106a3.722 3.722 0 0 1 1.302-.38l5.967-.079-.329.634h.588c.186-.01.37-.055.543-.134.377-.17.773-.276 1.176-.314l6.32-.106-.9 1.533-5.861-.21-.294-.107-.661-.29a1.73 1.73 0 0 0-.69-.106h-.335l-.368.634-5.426-.19a9.361 9.361 0 0 1-1.175-.43 1.836 1.836 0 0 0-.318-.108l-1.39-.027ZM30.48 30.445l.088-.172 1.315.025c.14-.017.278-.052.411-.105a4.921 4.921 0 0 1 1.469-.319h.334l4.88-.172-.325.612h1.06c.098.005.196-.002.293-.019l.793-.223c.198-.09.412-.13.626-.118l5.747-.08-.917 1.44-4.249-.194a6.601 6.601 0 0 1-1.124-.111l-.74-.319-.294-.108-.076-.029-1.26-.029-.344.638-4.798-.169a1.446 1.446 0 0 1-.614-.147l-.622-.27s-.124-.023-.335-.07l-1.318-.061ZM31.93 19.692l.067-.22h1.45l.074-.058.34-.114a.977.977 0 0 1 .206-.09c.188-.074.434-.16.737-.26l3.295-.132-.225 1.613-3.099-.193a1.78 1.78 0 0 1-.75-.218 1.831 1.831 0 0 0-.68-.274l-1.414-.054ZM30.117 32.178l.05-.19 1.506-.028a.618.618 0 0 0 .216-.053 7.898 7.898 0 0 1 1.066-.357 8.296 8.296 0 0 1 1.22-.096l3.925-.14-.808 1.613-4.191-.157a4.612 4.612 0 0 1-1.209-.435 1.125 1.125 0 0 0-.383-.107l-1.392-.05Z"/><path fill="#ED1C24" d="m0 32.524.697-2.84L9.04 21.64H3.052l.715-2.822h9.296l-.88 3.577-7.62 7.288h6.63l-.698 2.84H0ZM11.973 32.524l3.466-13.706h3.428l-3.33 13.706h-3.564ZM18.52 27.065c.233-2.629 1.161-4.728 2.785-6.297 1.625-1.57 3.638-2.354 6.04-2.354.258 0 .534.006.83.02.291 0 .583.038.892.073.724.092 1.42.36 2.04.785.609.424.874 1.17.813 2.251a5.611 5.611 0 0 1-.19 1.142l-3.334-.02a1.828 1.828 0 0 0-.416-1.167c-.254-.28-.75-.421-1.481-.421-.993 0-1.906.517-2.74 1.55a7.37 7.37 0 0 0-1.57 3.441.704.704 0 0 0-.03.177v.215c-.01.183-.01.367 0 .55.012.198.034.394.065.589.106.586.35 1.13.708 1.579.367.479.938.72 1.705.72.192 0 .457-.02.798-.058a4.053 4.053 0 0 0 1.227-.392l.53-2.232h-2.39l.703-2.785h5.876l-1.799 7.342a53.103 53.103 0 0 1-3.32.553c-.863.122-1.733.187-2.605.197h-.35c-1.878.012-3.17-.496-3.873-1.525-.703-1.029-1.008-2.334-.915-3.914v-.019Z"/><path fill="#231F20" d="M119.514 32.756c-.16 0-.281-.047-.362-.142-.082-.095-.123-.234-.123-.416 0-.175.042-.31.126-.406.083-.097.203-.146.359-.146.15 0 .269.05.357.146.086.098.128.233.128.406 0 .178-.041.315-.125.413a.456.456 0 0 1-.36.145ZM116.45 29.286c0 .367.125.652.375.853.247.202.593.303 1.037.303.924 0 1.386-.386 1.386-1.156 0-.323-.072-.715-.218-1.175h.737c.142.378.213.8.213 1.266 0 .67-.183 1.182-.547 1.537-.367.355-.892.532-1.577.532-.43 0-.807-.087-1.131-.261a1.771 1.771 0 0 1-.745-.75c-.174-.327-.261-.71-.261-1.15 0-.446.097-.896.292-1.347l.714.315a5.519 5.519 0 0 0-.192.52 1.7 1.7 0 0 0-.083.513ZM117.845 22.95c.686 0 1.213.189 1.582.567.368.377.553.92.553 1.625s-.185 1.247-.553 1.625c-.369.377-.898.566-1.588.566-.689 0-1.216-.189-1.579-.566-.364-.38-.547-.924-.547-1.632 0-.707.184-1.248.55-1.622.367-.376.894-.563 1.582-.563Zm0 3.36c.463 0 .812-.098 1.046-.293.234-.195.352-.487.352-.875 0-.78-.466-1.169-1.398-1.169-.933 0-1.4.387-1.4 1.162 0 .389.118.681.354.879.234.197.583.296 1.046.296ZM119.923 20.046l-3.251 1.108v.029c.661-.04 1.102-.06 1.323-.06h1.928v.872h-4.144v-1.329l3.169-1.09v-.018l-3.169-1.156v-1.329h4.144v.91h-1.962c-.092 0-.199 0-.32-.003-.121-.004-.442-.019-.964-.044v.028l3.246 1.188v.894Z"/></svg>