<svg xmlns="http://www.w3.org/2000/svg" width="120" height="50" fill="none" viewBox="0 0 120 50"><path fill="#F34653" d="M0 16.2h2.51v2.517H0v-2.516Zm15.09 0H5.027v2.51h7.545v1.955l-3.14 1.815a6.271 6.271 0 0 0-3.142 5.445v2.22l-1.683-.973a4.188 4.188 0 0 1-2.097-3.623v-4.316H0v4.55c0 2.244 1.2 4.324 3.141 5.445l3.15 1.816 1.309.755 1.208-.693 3.141-1.815a6.271 6.271 0 0 0 3.141-5.446v-9.644Zm-2.51 9.412a4.2 4.2 0 0 1-2.096 3.63l-1.676.966v-2.041c0-1.496.795-2.883 2.097-3.63l1.675-.966v2.04Z"/><path fill="#333846" fill-rule="evenodd" d="M88.673 21.218c0 2.843-2.113 5.017-4.88 5.017h-3.788V16.2h3.788c2.767 0 4.88 2.181 4.88 5.017Zm-2.144 0c0-1.722-1.091-2.852-2.673-2.852h-1.723v5.71h1.723c1.582 0 2.673-1.137 2.673-2.858Zm-30.92-2.493v7.526h-2.136v-.88c-.467.537-1.169.864-2.12.864-1.862 0-3.406-1.636-3.406-3.755 0-2.119 1.544-3.755 3.406-3.755.951 0 1.653.327 2.12.865v-.865h2.136Zm-2.136 3.763c0-1.067-.709-1.737-1.699-1.737-.99 0-1.691.67-1.691 1.737 0 1.067.71 1.737 1.691 1.737.983 0 1.7-.67 1.7-1.737Zm-6.157-3.763v2.439c-.889-.14-2.151.218-2.151 1.636v3.45h-2.16v-7.525h2.16v1.418c.28-.958 1.247-1.418 2.15-1.418Zm54.515 7.534-2.206-3.047v3.047h-2.066V16.217h2.066v5.523l2.065-3.015h2.409l-2.51 3.646 2.572 3.88h-2.33v.008Zm9.789-4.683v4.683h-2.065V21.88c0-.857-.538-1.254-1.2-1.254-.756 0-1.279.444-1.279 1.418v4.215h-2.065V16.217h2.073v3.35c.374-.507 1.06-.842 1.972-.842 1.38 0 2.564.997 2.564 2.851Zm.835.912c0-2.119 1.683-3.755 3.772-3.755 2.089 0 3.773 1.636 3.773 3.755 0 2.119-1.684 3.755-3.773 3.755-2.089 0-3.772-1.636-3.772-3.755Zm5.409 0c0-1.013-.709-1.683-1.637-1.683s-1.637.67-1.637 1.683.709 1.683 1.637 1.683 1.645-.67 1.637-1.683Zm-23.51 1.55a2.044 2.044 0 0 1-1.084.295c-.787 0-1.442-.249-1.707-.989h5.067c.062-.28.085-.569.085-.857 0-2.15-1.543-3.763-3.624-3.763-2.253 0-3.796 1.636-3.796 3.763s1.52 3.763 3.952 3.763c1.356 0 2.416-.499 3.11-1.473l-2.003-.74Zm-1.286-3.428c.639 0 1.286.303 1.512 1.13h-3.071c.202-.725.748-1.13 1.559-1.13Zm-17.355 3.732c.382.008.756-.101 1.084-.296l2.003.74c-.694.974-1.754 1.472-3.11 1.472-2.44 0-3.952-1.636-3.952-3.762 0-2.127 1.543-3.763 3.796-3.763 2.081 0 3.624 1.612 3.624 3.763 0 .288-.03.576-.085.857h-5.059c.257.74.912.989 1.7.989Zm1.31-2.594c-.226-.826-.873-1.13-1.512-1.13-.811 0-1.357.405-1.56 1.13h3.072Zm-57.069 4.51V16.218h-2.291v10.042h2.291Zm7.889 0v-4.494c0-1.98-1.263-3.039-2.744-3.039-.967 0-1.7.35-2.097.896v-.896h-2.198v7.534h2.198v-3.997c0-1.044.561-1.511 1.364-1.511.71 0 1.279.42 1.279 1.332v4.176h2.198Zm35.636 0v-4.494c0-1.98-1.263-3.039-2.744-3.039-.966 0-1.699.35-2.096.896v-.896H56.44v7.534h2.198v-3.997c0-1.044.56-1.511 1.364-1.511.709 0 1.278.42 1.278 1.332v4.176h2.198Zm-31.942 0c1.544 0 2.97-.7 2.97-2.336 0-1.694-1.446-2.078-2.483-2.352-.58-.154-1.032-.274-1.032-.57 0-.257.226-.397.6-.397.475 0 .756.257.959.63l1.831-.98c-.6-1.014-1.629-1.528-2.782-1.528-1.49 0-2.799.78-2.799 2.337 0 1.573 1.432 1.973 2.466 2.261.584.163 1.042.29 1.042.575 0 .288-.257.444-.772.444-.631 0-1.029-.296-1.216-.841l-1.855 1.06c.561 1.152 1.645 1.698 3.071 1.698Zm10.632-.007v-7.526H39.97v3.997c0 1.044-.554 1.511-1.364 1.511-.71 0-1.279-.42-1.279-1.332v-4.176H35.13v4.495c0 1.98 1.263 3.03 2.744 3.03.967 0 1.7-.35 2.097-.895v.896h2.198Zm25.714-7.518c-2.167 0-3.78 1.636-3.78 3.763 0 2.119 1.613 3.763 3.788 3.763 1.403 0 2.61-.725 3.227-1.839l-1.871-1.067c-.234.498-.764.794-1.388.794-.927 0-1.62-.67-1.62-1.651 0-.982.685-1.652 1.613-1.652.631 0 1.145.296 1.387.795l1.87-1.083c-.615-1.099-1.839-1.823-3.226-1.823Z" clip-rule="evenodd"/></svg>