<svg xmlns="http://www.w3.org/2000/svg" width="120" height="50" fill="none" viewBox="0 0 120 50"><path fill="#E12D2B" d="M18.752 36.273c-12.72.274-15.483-17.592-2.974-21.178 2.91-.886 8.732-1.35 18.288-1.37a2.503 2.503 0 0 1 2.51 2.51 2.53 2.53 0 0 1-2.49 2.53c-11.664.021-15.46.739-16.853 1.16-6.391 1.71-5.948 10.294.359 11.264 5.99.654 8.775-6.834 3.691-10.504 1.645-.169 4.24-.316 6.244-.38a10.382 10.382 0 0 1 1.392 4.24c.696 5.97-4.198 11.56-10.167 11.728Zm-4.514-22.17c-3.037-.231-6.919-.358-11.728-.358A2.503 2.503 0 0 0 0 16.255a2.53 2.53 0 0 0 2.489 2.532c2.152 0 4.05.02 5.695.084 1.392-2.173 3.46-3.797 6.054-4.767Z"/><path fill="#24272C" d="M44.064 24.852c.991.633 1.498 1.54 1.498 2.742 0 1.055-.38 1.899-1.118 2.553-.76.654-1.688.991-2.785.991h-5.083V19.03h4.746c1.076 0 1.983.317 2.72.97.74.634 1.098 1.477 1.098 2.51-.021.95-.38 1.73-1.076 2.342ZM41.3 21.625h-1.983v2.151H41.3c.316 0 .57-.105.76-.295.189-.21.294-.464.294-.78 0-.317-.105-.57-.295-.78a1.106 1.106 0 0 0-.76-.296Zm.337 6.919c.338 0 .633-.106.823-.317.21-.21.316-.485.316-.843 0-.36-.105-.633-.316-.844-.211-.211-.485-.317-.823-.317h-2.32v2.32h2.32ZM49.063 21.266c-.316.296-.675.465-1.097.465-.422 0-.801-.148-1.097-.465a1.452 1.452 0 0 1-.464-1.096c0-.422.148-.802.464-1.097a1.532 1.532 0 0 1 1.097-.464c.422 0 .802.147 1.097.464.295.295.464.675.464 1.096 0 .422-.148.802-.464 1.097Zm-2.384 9.872V22.49h2.595v8.648h-2.595ZM59.315 31.138h-2.932l-2.764-3.818v3.818h-2.594V19.03h2.594v7.257l2.595-3.797h3.037l-3.143 4.324 3.207 4.324Z"/><path fill="#24272C" d="M61.888 27.848c.295.801.991 1.202 2.067 1.202.696 0 1.266-.211 1.666-.654l2.067 1.202c-.843 1.182-2.109 1.793-3.775 1.793-1.456 0-2.616-.443-3.48-1.307-.865-.865-1.309-1.962-1.309-3.27s.422-2.384 1.287-3.27c.865-.864 1.962-1.307 3.312-1.307 1.266 0 2.299.443 3.143 1.308.844.864 1.244 1.961 1.244 3.27 0 .379-.042.716-.105 1.033h-6.117Zm-.042-1.94h3.712c-.253-.908-.865-1.372-1.835-1.372-1.013.021-1.624.464-1.877 1.371ZM74.375 19.03c1.666 0 3.08.57 4.198 1.73 1.118 1.16 1.687 2.595 1.687 4.324 0 1.73-.57 3.164-1.687 4.324-1.118 1.16-2.532 1.73-4.198 1.73h-4.851V19.03h4.851Zm0 9.45c.95 0 1.73-.316 2.32-.928.59-.611.886-1.434.886-2.468 0-1.033-.295-1.856-.886-2.468-.59-.611-1.37-.928-2.32-.928h-2.067v6.792h2.067ZM83.867 27.848c.295.801.992 1.202 2.067 1.202.696 0 1.266-.211 1.667-.654l2.067 1.202c-.844 1.182-2.11 1.793-3.776 1.793-1.455 0-2.615-.443-3.48-1.307-.865-.865-1.308-1.962-1.308-3.27s.422-2.384 1.287-3.27c.864-.864 1.961-1.307 3.311-1.307 1.266 0 2.3.443 3.143 1.308.844.864 1.245 1.961 1.245 3.27 0 .379-.043.716-.106 1.033h-6.117Zm-.042-1.94h3.712c-.253-.908-.865-1.372-1.835-1.372-.991.021-1.624.464-1.877 1.371ZM99.73 31.138h-2.954l-2.763-3.818v3.818h-2.595V19.03h2.595v7.257l2.594-3.797h3.038l-3.164 4.324 3.248 4.324ZM105.572 22.258c.928 0 1.688.316 2.32.949.612.633.928 1.519.928 2.637v5.315h-2.594v-4.957c0-.506-.148-.907-.422-1.16-.274-.274-.654-.4-1.076-.4-.506 0-.886.147-1.181.442-.295.296-.443.739-.443 1.33v4.724h-2.594V19.03h2.594v4.282c.506-.717 1.35-1.054 2.468-1.054ZM117.827 30.062c-.886.886-1.982 1.33-3.248 1.33-1.287 0-2.362-.444-3.248-1.33-.886-.886-1.329-1.961-1.329-3.248 0-1.287.443-2.362 1.329-3.248.886-.886 1.982-1.33 3.248-1.33 1.287 0 2.362.444 3.248 1.33.886.886 1.329 1.961 1.329 3.248 0 1.287-.443 2.363-1.329 3.248Zm-4.661-1.771c.379.38.843.57 1.413.57.569 0 1.034-.19 1.413-.57.38-.38.57-.865.57-1.477 0-.59-.19-1.097-.57-1.477-.379-.38-.844-.569-1.413-.569-.57 0-1.034.19-1.413.57-.38.38-.57.864-.57 1.476s.19 1.097.57 1.477Z"/></svg>