<svg xmlns="http://www.w3.org/2000/svg" viewBox="0 0 80 80"><circle cx="40" cy="40" r="40" fill="#fff" fill-rule="evenodd"/><linearGradient id="A" x1="40" x2="40" y1="0" y2="76.672" gradientUnits="userSpaceOnUse"><stop offset="0" stop-color="#eaf7ff"/><stop offset="1" stop-color="#fff"/></linearGradient><circle cx="40" cy="40" r="40" fill="url(#A)"/><path fill="#fff" d="M47.9 10.7c1.6-.1 2.9 1.1 3 2.7s-1.1 2.9-2.7 3h-8.6a2.22 2.22 0 0 1-2.2-2.2 2.22 2.22 0 0 1 2.2-2.2h.2c-.3-1.9 1.1-3.7 3-3.9 1.9-.3 3.7 1.1 3.9 3 .3-.3.8-.4 1.2-.4z"/><g fill-rule="evenodd"><path fill="#57a2d4" d="M40 32c-2.7 2.6-4 5.3-4 8v28.4h-2.2v11.1c2 .3 4.1.5 6.2.5h.9m0 0c2.1 0 4.2-.3 6.2-.6v-11h-1.3V40c0-2.7-1.3-5.3-4-8v-3.5l-.9-2.7-.9 2.6V32"/><path fill="#91c5e6" d="M59.1 47.1c0-2.7-1.3-5.4-4-8v-1.7l-.9-2.7-.9 2.7v1.7c-2.7 2.7-4 5.4-4 8v21.3H48v10.8c6.7-1.4 12.8-4.4 17.8-8.6v-2.1h-6.7V47.1zm-27.5 0c0-2.7-1.3-5.4-4-8v-1.7l-.9-2.7-.9 2.7v1.7c-2.7 2.7-4 5.4-4 8v21.3H16V72c4.9 3.7 10.6 6.2 16.9 7.4v-11h-1.3V47.1z"/></g><g fill="#fff"><path d="M25.8 63.1h1.8v3.6h-1.8v-3.6zm.9-5.3a1.8 1.8 0 1 1 0-3.6 1.79 1.79 0 0 1 1.8 1.8c-.1 1-.9 1.8-1.8 1.8zm26.6 5.3h1.8v3.6h-1.8v-3.6zm.9-5.3a1.8 1.8 0 1 1 0-3.6 1.8 1.8 0 1 1 0 3.6zM35.6 40.4c.3-.3.7-.4 1.1-.4h8.5c.4 0 .8.2 1.1.4.1.1.1.3 0 .4 0 0-.1.1-.2.1H35.8c-.1 0-.3-.1-.3-.3.1 0 .1-.1.1-.2zm.9-4.4.2-.2c.2-.2.4-.3.7-.3h7.2c.3 0 .5.1.7.3l.1.2c.1.1.1.3 0 .4 0 0-.1.1-.2.1h-8.5c-.1 0-.3-.1-.3-.3 0-.1.1-.2.1-.2zM21.4 46.7c.3-.3.7-.4 1.1-.4H31c.4 0 .8.2 1.1.4.1.1.1.3 0 .4 0 0-.1.1-.2.1H21.6c-.1 0-.3-.1-.3-.3 0-.1.1-.2.1-.2zm.9-4.5.2-.2c.2-.2.4-.3.7-.3h6.3c.3 0 .5.1.7.3l.2.2c.1.1.1.3 0 .4 0 0-.1.1-.2.1h-7.6c-.1 0-.3-.1-.3-.3-.1-.1 0-.1 0-.2zM49 46.7c.3-.3.7-.4 1.1-.4h8.5c.4 0 .8.2 1.1.4.1.1.1.3 0 .4 0 0-.1.1-.2.1H49.2c-.1 0-.3-.1-.3-.3 0-.1 0-.2.1-.2zm.9-4.5.2-.2c.2-.2.4-.3.7-.3H57c.3 0 .5.1.7.3l.2.2c.1.1.1.3 0 .4 0 0-.1.1-.2.1H50c-.1 0-.3-.1-.3-.3l.2-.2zm-32.5-7.6a1.86 1.86 0 0 1 1.9 1.7 1.86 1.86 0 0 1-1.7 1.9h-5.5c-.8 0-1.4-.6-1.4-1.4s.6-1.4 1.4-1.4h.1c-.2-1.2.7-2.3 1.9-2.5s2.3.7 2.5 1.9c.2-.1.5-.2.8-.2zm22.6 25h1.8v3.6H40v-3.6z"/><circle cx="40.9" cy="48" r="1.8"/><circle cx="40.9" cy="74.7" r="1.8"/></g></svg>