<svg xmlns="http://www.w3.org/2000/svg" xml:space="preserve" id="Layer_1" x="0" y="0" style="enable-background:new 0 0 80 80" version="1.1" viewBox="0 0 80 80"><style type="text/css">.st0{fill:url(#SVGID_1_)}.st1{fill:#fff}.st2{fill-rule:evenodd;clip-rule:evenodd;fill:#ceecff}.st3{fill:#57a2d4}.st4{fill:#91c5e6}</style><g id="Oval-2_1_"><linearGradient id="SVGID_1_" x1="-904.381" x2="-904.381" y1="13.114" y2="14.073" gradientTransform="matrix(70 0 0 70 63347 -913)" gradientUnits="userSpaceOnUse"><stop offset="0" style="stop-color:#eaf7ff"/><stop offset="1" style="stop-color:#fff"/></linearGradient><circle cx="40.3" cy="40" r="35" class="st0"/></g><g id="Shape_1_"><path d="M62.833 22.178c1.4-.1 2.6 1 2.7 2.4.1 1.4-1 2.6-2.4 2.7h-7.6c-1.1 0-2-.9-2-2s.9-2 2-2h.1c-.2-1.7.9-3.2 2.6-3.4 1.7-.2 3.2.9 3.4 2.6.4-.2.8-.3 1.2-.3zM20.533 35.278c.9-.1 1.6.6 1.7 1.5s-.6 1.6-1.5 1.7h-4.8c-.7 0-1.2-.6-1.2-1.2 0-.7.6-1.2 1.2-1.2h.1c-.1-1.1.6-2 1.6-2.2 1.1-.1 2 .6 2.2 1.6.2-.1.4-.2.7-.2z" class="st1"/></g><path id="Path-5_1_" d="m18.5 61.5 10.7-9.8h21.5l-9.9 9.8z" class="st2"/><circle cx="39.9" cy="16.9" r="1.8" class="st3"/><path d="M28.4 41h1.8v8.9h-1.8zM35.5 45.4c0-1-.8-1.8-1.8-1.8s-1.8.8-1.8 1.8v4.5h3.6v-4.5zM44.4 43.7c-1 0-1.8.8-1.8 1.8V50h3.6v-4.5c0-1-.8-1.8-1.8-1.8zM48 41h1.8v8.9H48zM37.3 41h3.6v8.9h-3.6zM18.5 67.4c6 4.8 13.5 7.6 21.8 7.6h.5V62.4H18.5v5zm9.9-3.2h1.8V66h-1.8v-1.8zm-2.7 0h1.8V66h-1.8v-1.8zm-2.7 0h1.8V66H23v-1.8zm-2.7 0h1.8V66h-1.8v-1.8z" class="st3"/><path d="M46.2 40.1h3.6l-9.9-21.4-11.5 21.4h5.3l1.8-5.4 1.8 5.4h4.4l1.8-5.4zM55.4 52.2v-3.6l-1.8-1.8-1.8 1.8v4.5L42 62.9V75c1.8-.1 3.6-.3 5.4-.7v-7.8h1.8V62c0-.5.4-.9.9-.9s.9.4.9.9v4.5h1.8v6.3c1.2-.5 2.4-1 3.6-1.6v-4.7h1.8V62c0-.5.4-.9.9-.9s.9.4.9.9v4.5h1.8v1.3c1.6-1.2 3.1-2.6 4.5-4.1v-4.3l-10.9-7.2z" class="st4"/></svg>