<svg xmlns="http://www.w3.org/2000/svg" width="526" height="228" version="1.1" viewBox="0 0 526 228"><defs><linearGradient id="linearGradient-1" x1="50%" x2="50%" y1="0%" y2="100%"><stop offset="0%" stop-color="#FFF" stop-opacity=".5"/><stop offset="100%" stop-color="#FFF"/></linearGradient><linearGradient id="linearGradient-2" x1="0%" x2="100%" y1="0%" y2="100%"><stop offset="0%" stop-color="#FDD339"/><stop offset="100%" stop-color="#FCA222"/></linearGradient><linearGradient id="linearGradient-3" x1="50%" x2="50%" y1="0%" y2="95.836%"><stop offset="0%" stop-color="#EAF7FF"/><stop offset="100%" stop-color="#FFF"/></linearGradient><linearGradient id="linearGradient-4" x1="50%" x2="50%" y1="0%" y2="100%"><stop offset="0%" stop-color="#DBE5F8"/><stop offset="100%" stop-color="#EDF3FB"/></linearGradient><linearGradient id="linearGradient-5" x1="50%" x2="50%" y1="0%" y2="100%"><stop offset="0%" stop-color="#78D695"/><stop offset="100%" stop-color="#A6F693"/></linearGradient><linearGradient id="linearGradient-6" x1="50%" x2="50%" y1="0%" y2="95.836%"><stop offset="0%" stop-color="#EAF7FF"/><stop offset="100%" stop-color="#FFF"/></linearGradient><linearGradient id="linearGradient-7" x1="50%" x2="50%" y1="0%" y2="100%"><stop offset="0%" stop-color="#DBE5F8"/><stop offset="100%" stop-color="#EDF3FB"/></linearGradient><linearGradient id="linearGradient-8" x1="50%" x2="50%" y1="0%" y2="95.836%"><stop offset="0%" stop-color="#EAF7FF"/><stop offset="100%" stop-color="#FFF"/></linearGradient></defs><g id="update-10-sep" fill="none" fill-rule="evenodd" stroke="none" stroke-width="1"><g id="Desktop-Home" transform="translate(-824 -3324)"><g id="Group-53" transform="translate(90 3067)"><g id="Path-25-+-Group-32-+-Path-2-+-Path-2-+-Combined-Shape-+-Group-10-+-Group-10-+-Combined-Shape-Mask" transform="translate(734 257)"><path id="Path-25" fill="url(#linearGradient-1)" d="M185.078 92.384c.833-22.128 20.406-34.725 58.718-37.79 57.47-4.596 55.387-42.771 93.7-52.322 38.312-9.551 106.609 11.212 114.521 58.552 7.912 47.34 65.381 101.323 0 107.968-65.381 6.644-82.455 29.483-129.93 22.839-47.474-6.644-119.102-7.89-130.762-43.187-7.774-23.532-9.856-42.218-6.247-56.06Z"/><g id="Group-32" transform="translate(222 82)"><circle id="Oval-6" cx="209" cy="9" r="9" fill="url(#linearGradient-2)"/><path id="Path-6" fill="#EAF6FE" d="M37.924 39H112c-.686-1.92-3.215-3.93-7.587-6.026 0-4.219-3.654-7.233-6.699-8.124-2.216-.65-4.68-.65-7.39 0-4.817-4.63-9.834-4.332-15.05.891-1.92-7.835-4.964-9.04-8.618-10.246-3.654-1.206-13.361-.936-18.71 9.355-9.417.349-12.758 5.066-10.022 14.15ZM.542 17H44c-.402-1.12-1.886-2.292-4.451-3.515 0-2.461-2.144-4.22-3.93-4.74-1.3-.378-2.745-.378-4.336 0-2.826-2.7-5.769-2.526-8.829.52-1.126-4.57-2.912-5.273-5.056-5.976-2.143-.703-7.839-.546-10.976 5.457C.897 8.949-1.063 11.7.542 17Z"/></g><path id="Path-2" fill="#967146" d="M450.17 60.638c5.345 1.887 8.018 3.93 8.018 6.132.314-1.573 3.616-3.145 9.904-4.717-6.288 3.459-9.747 5.817-10.376 7.075-.943-3.145-3.458-5.974-7.546-8.49ZM469.574 66.702c3.818 1.348 5.727 2.807 5.727 4.38.225-1.123 2.583-2.246 7.075-3.37-4.492 2.471-6.962 4.156-7.411 5.054-.674-2.246-2.47-4.267-5.39-6.064Z"/><path id="Combined-Shape" fill="url(#linearGradient-3)" d="M293.723 226.787v-24.993h44.359v-19.53h8.628v-36.99h13.402l8.656-16.838L377.15 145h9.54v-10.908h10.9v-12.815h19.505v61.441H430.3v-10.022h11.74v9.558h23.229v-28.155h10v-5.218H478l1.364-9.088 1.362 9.088h2.255v4.647h9.098v26.717h8.628v-9.852h11.365v33.68h13.555v22.714H293.723Zm107.958-101.79v4.543h4.543v-4.544h-4.543Zm7.269 0v4.543h4.543v-4.544h-4.543Zm-7.269 7.27v4.544h4.543v-4.544h-4.543Zm7.269 0v4.544h4.543v-4.544h-4.543Zm-57.24 19.995v4.544h4.543v-4.544h-4.543Zm7.269 0v4.544h4.543v-4.544h-4.543Zm-7.269 7.27v4.545h4.543v-4.545h-4.543Zm7.269 0v4.545h4.543v-4.545h-4.543Zm8.177-7.27v4.544h4.543v-4.544h-4.543Zm7.268 0v4.544h4.543v-4.544h-4.543Zm-7.268 7.27v4.545h4.543v-4.545h-4.543Zm7.268 0v4.545h4.543v-4.545h-4.543Zm8.177-7.27v4.544h4.543v-4.544h-4.543Zm0 7.27v4.545h4.543v-4.545h-4.543Z" transform="matrix(-1 0 0 1 819.35 0)"/><g id="Group-10" transform="translate(439.255 192.83)"><path id="Path-15" fill="url(#linearGradient-4)" d="M7.585 30.842c4.36.174 6.714-.698 7.063-2.616.523-2.876-2.78-5.753-3.14-6.8-.359-1.046.524-2.353 1.832-3.923 1.308-1.569 3.139-4.184 0-6.538s.261-5.23-1.831-7.062C9.416 2.073 4.447-1.589 3.4.765c-1.046 2.354.785 4.446 1.308 6.538.523 2.093-2.092 2.877-2.877 4.447-.785 1.569-1.308 2.876.785 5.23C4.708 19.334 0 21.426 0 23.52c0 2.092 2.926 5.23 5.231 6.277 1.537.697 2.322 1.046 2.354 1.046Z"/><path id="Path-16" fill="#D7DBE4" d="M7.637 35.17c-.666-3.064-1.248-5.362-1.747-6.894-.75-2.299-1.498-4.086 0-6.895.272-.51.544-1.164.803-1.91.041-.118-1.709-2.308-1.668-2.431.048-.147 1.887 1.77 1.934 1.617 1.028-3.333 1.742-7.924 1.177-10.044.366 1.216.375 3.013.2 4.892-.01.114.8-.07 2.43-.55-1.673.874-2.515 1.352-2.525 1.433-.359 2.978-1.105 5.962-1.56 6.993-.586 1.324-.83 2.368-.527 4.377.02.136 3.09-1.202 3.115-1.057.02.12-3.003 1.72-2.978 1.847.1.514.229 1.085.39 1.728.637 2.553 1.123 4.851 1.455 6.894h-.499Z"/></g><g id="Group-10" transform="translate(464.723 180.702)"><path id="Path-15" fill="url(#linearGradient-5)" d="M9.827 39.96c5.648.226 8.697-.903 9.15-3.388.677-3.728-3.601-7.455-4.067-8.81-.466-1.356.678-3.05 2.372-5.084 1.694-2.033 4.066-5.422 0-8.471-4.066-3.05.339-6.778-2.372-9.15C12.199 2.685 5.76-2.059 4.405.991 3.05 4.041 5.422 6.751 6.1 9.463c.678 2.71-2.71 3.727-3.727 5.76s-1.694 3.728 1.017 6.778C6.099 25.05 0 27.76 0 30.472c0 2.71 3.79 6.777 6.777 8.133 1.991.903 3.008 1.355 3.05 1.355Z"/><path id="Path-16" fill="#53B973" d="M10.323 46.085c-.904-4.066-1.694-7.116-2.372-9.15-1.017-3.049-2.033-5.42 0-9.148.37-.678.739-1.545 1.09-2.534.056-.158-2.319-3.063-2.264-3.227.066-.196 2.562 2.349 2.626 2.146 1.395-4.423 2.365-10.516 1.598-13.328.496 1.613.508 3.998.27 6.49-.014.152 1.086-.091 3.3-.73-2.272 1.16-3.414 1.795-3.428 1.903-.487 3.952-1.5 7.912-2.119 9.28-.795 1.757-1.125 3.142-.714 5.809.027.179 4.193-1.596 4.228-1.404.029.16-4.076 2.283-4.042 2.451.135.682.31 1.44.528 2.293.866 3.388 1.525 6.438 1.977 9.15h-.678Z"/></g><path id="Path-4" fill="url(#linearGradient-6)" d="m41 225.958 110.002 1.635-50.827-33.84a5 5 0 0 0-5.345-.124L41 225.958Z"/><g id="Group-10" transform="translate(0 197.52)"><path id="Path-15" fill="url(#linearGradient-7)" d="M6.255 25.431c3.594.144 5.535-.575 5.823-2.157.431-2.372-2.292-4.744-2.588-5.607-.297-.862.431-1.94 1.51-3.234 1.078-1.294 2.588-3.45 0-5.392-2.589-1.94.215-4.313-1.51-5.822C7.764 1.709 3.667-1.311 2.804.63c-.863 1.94.647 3.666 1.078 5.391.432 1.725-1.725 2.372-2.372 3.666-.647 1.294-1.079 2.372.647 4.313C3.882 15.942 0 17.667 0 19.393c0 1.725 2.413 4.313 4.314 5.175 1.267.575 1.914.863 1.94.863Z"/><path id="Path-16" fill="#D7DBE4" d="M6.297 29c-.549-2.527-1.029-4.422-1.44-5.685-.618-1.895-1.236-3.369 0-5.685.224-.421.448-.96.662-1.574.034-.099-1.409-1.904-1.376-2.006.04-.121 1.556 1.46 1.595 1.334.848-2.748 1.437-6.534.97-8.282.302 1.002.31 2.485.165 4.033-.008.095.66-.057 2.005-.453-1.38.72-2.074 1.115-2.083 1.182-.295 2.456-.91 4.916-1.287 5.766-.483 1.092-.683 1.953-.434 3.61.017.11 2.548-.992 2.569-.873.017.1-2.476 1.419-2.456 1.523.083.424.189.895.321 1.425.526 2.106.926 4 1.2 5.685h-.41Z"/></g><path id="Path-4" fill="url(#linearGradient-8)" d="M135 226.765h69.73l-32.345-20.988a5 5 0 0 0-5.467.016L135 226.765Z"/></g></g></g></g></svg>