<svg id="FSL-2023-NEW-Logo" xmlns="http://www.w3.org/2000/svg" xmlns:xlink="http://www.w3.org/1999/xlink" width="96.753" height="20.418" viewBox="0 0 96.753 20.418">
  <defs>
    <clipPath id="clip-path">
      <rect id="Rectangle_31763" data-name="Rectangle 31763" width="96.754" height="20.418" transform="translate(0 0)" fill="none"/>
    </clipPath>
  </defs>
  <g id="Group_178726" data-name="Group 178726" transform="translate(0 0)" clip-path="url(#clip-path)">
    <path id="Path_379075" data-name="Path 379075" d="M11.884.284H.2a.2.2,0,0,0-.2.2V19.936a.2.2,0,0,0,.2.2h3.43a.2.2,0,0,0,.2-.2V11.4a.2.2,0,0,1,.2-.2H9.135a.2.2,0,0,0,.2-.2V8a.2.2,0,0,0-.2-.2H4.028a.2.2,0,0,1-.2-.2V3.887a.2.2,0,0,1,.2-.2h7.856a.2.2,0,0,0,.2-.2v-3a.2.2,0,0,0-.2-.2M24.586,0c-5.524,0-9.335,4.566-9.335,10.209s3.811,10.209,9.335,10.209,9.335-4.565,9.335-10.209S30.111,0,24.586,0m0,17.015c-3.376,0-5.732-3.063-5.732-6.806S21.21,3.4,24.586,3.4s5.732,3.062,5.732,6.806-2.356,6.806-5.732,6.806M78.753.284H75.3a.188.188,0,0,0-.189.189V19.947a.189.189,0,0,0,.189.189h3.451a.189.189,0,0,0,.189-.189V.473a.188.188,0,0,0-.189-.189m17.79,16.448H90.37a.21.21,0,0,1-.21-.21V.494a.21.21,0,0,0-.21-.21H86.542a.21.21,0,0,0-.21.21V19.925a.21.21,0,0,0,.21.21h10a.21.21,0,0,0,.21-.21V16.942a.21.21,0,0,0-.21-.21M42.022,5.559c0-1.531,1.617-2.155,3.062-2.155a5.353,5.353,0,0,1,3.323,1.207.129.129,0,0,0,.193-.024l1.825-2.606a.139.139,0,0,0-.033-.19A9.183,9.183,0,0,0,44.744,0c-3.289,0-6.55,2.042-6.55,5.587A5.007,5.007,0,0,0,41,10.1c2.665,1.56,6.352,1.872,6.352,4.424a2.612,2.612,0,0,1-2.892,2.5,6.509,6.509,0,0,1-4.565-2.062.131.131,0,0,0-.2.015L37.782,17.7a.137.137,0,0,0,.025.184,10.408,10.408,0,0,0,6.654,2.537c3.573,0,6.721-2.438,6.721-5.955,0-6.693-9.159-5.7-9.159-8.9m17.626,0c0-1.531,1.617-2.155,3.062-2.155a5.37,5.37,0,0,1,3.264,1.158.2.2,0,0,0,.3-.037l1.74-2.485a.21.21,0,0,0-.05-.288A9.178,9.178,0,0,0,62.369,0c-3.289,0-6.55,2.042-6.55,5.587A5.007,5.007,0,0,0,58.626,10.1c2.665,1.56,6.352,1.872,6.352,4.424a2.612,2.612,0,0,1-2.893,2.5,6.5,6.5,0,0,1-4.506-2,.2.2,0,0,0-.311.023l-1.824,2.6a.209.209,0,0,0,.038.28,10.389,10.389,0,0,0,6.6,2.5c3.573,0,6.721-2.438,6.721-5.955,0-6.693-9.159-5.7-9.159-8.9" transform="translate(0 -0.001)" fill="#1a1818"/>
  </g>
</svg>
